<?xml version="1.0" encoding="UTF-8"?>
<svg width="310px" height="202px" viewBox="0 0 310 202" version="1.1" xmlns="http://www.w3.org/2000/svg" xmlns:xlink="http://www.w3.org/1999/xlink">
    <!-- Generator: Sketch 41.2 (35397) - http://www.bohemiancoding.com/sketch -->
    <title>card</title>
    <desc>Created with Sketch.</desc>
    <defs>
        <rect id="path-1" x="0" y="0" width="306" height="198" rx="12"></rect>
        <filter x="-50%" y="-50%" width="200%" height="200%" filterUnits="objectBoundingBox" id="filter-2">
            <feOffset dx="0" dy="1" in="SourceAlpha" result="shadowOffsetOuter1"></feOffset>
            <feGaussianBlur stdDeviation="1" in="shadowOffsetOuter1" result="shadowBlurOuter1"></feGaussianBlur>
            <feColorMatrix values="0 0 0 0 0   0 0 0 0 0   0 0 0 0 0  0 0 0 0.2 0" type="matrix" in="shadowBlurOuter1"></feColorMatrix>
        </filter>
    </defs>
    <g id="balance" stroke="none" stroke-width="1" fill="none" fill-rule="evenodd">
        <g id="confirm-top-up" transform="translate(-33.000000, -221.000000)">
            <g id="card" transform="translate(35.000000, 222.000000)">
                <g>
                    <g id="Rectangle-2">
                        <use fill="black" fill-opacity="1" filter="url(#filter-2)" xlink:href="#path-1"></use>
                        <use fill="#17425F" fill-rule="evenodd" xlink:href="#path-1"></use>
                    </g>
                    <path d="M119.064,154.2 L119.064,152.288 L120.24,152.288 C120.448,152.288 120.64,152.176 120.64,151.888 C120.64,151.6 120.448,151.488 120.24,151.488 L119.064,151.488 L119.064,149.576 L121.816,149.576 C122.024,149.576 122.216,149.464 122.216,149.176 C122.216,148.888 122.024,148.776 121.816,148.776 L118.264,148.776 L118.264,155 L121.816,155 C122.024,155 122.216,154.888 122.216,154.6 C122.216,154.312 122.024,154.2 121.816,154.2 L119.064,154.2 Z M124.12,154.336 C124.064,154.424 124.024,154.512 124.024,154.624 C124.024,154.832 124.216,155 124.416,155 C124.68,155 124.768,154.8 124.88,154.608 L126,152.696 L127.12,154.608 C127.232,154.8 127.32,155 127.584,155 C127.784,155 127.976,154.832 127.976,154.624 C127.976,154.512 127.936,154.424 127.88,154.336 L126.456,151.888 L127.88,149.44 C127.936,149.352 127.976,149.264 127.976,149.152 C127.976,148.944 127.784,148.776 127.584,148.776 C127.32,148.776 127.232,148.976 127.12,149.168 L126,151.08 L124.88,149.168 C124.768,148.976 124.68,148.776 124.416,148.776 C124.216,148.776 124.024,148.944 124.024,149.152 C124.024,149.264 124.064,149.352 124.12,149.44 L125.544,151.888 L124.12,154.336 Z M130.584,152.648 L132.336,152.648 C132.768,152.648 133.096,152.616 133.408,152.264 C133.704,151.936 133.736,151.648 133.736,151.24 L133.736,150.152 C133.736,149.72 133.704,149.424 133.36,149.104 C133.072,148.832 132.808,148.776 132.44,148.776 L129.784,148.776 L129.784,154.6 C129.784,154.856 129.896,155 130.184,155 C130.472,155 130.584,154.856 130.584,154.6 L130.584,152.648 Z M130.584,149.576 L132.36,149.576 C132.832,149.576 132.936,149.696 132.936,150.152 L132.936,151.272 C132.936,151.728 132.832,151.848 132.36,151.848 L130.584,151.848 L130.584,149.576 Z" id="EXP" fill="#FFFFFF" opacity="0.5"></path>
                    <path d="M23,73.2148 C23,71.9968 23.9964,71 25.2148,71 L40.4464,71 L40.4464,83.7784 L36.602,83.7784 L31.3664,78.5428 L23,78.5428 L23,73.2148 Z M45.1144,84.8856 L45.1144,93.1144 L36.8856,93.1144 L36.8856,84.8856 L45.1144,84.8856 Z M23,79.6504 L30.9076,79.6504 L35.7784,84.5212 L35.7784,88.4464 L23,88.4464 L23,79.6504 Z M23,89.5536 L35.7784,89.5536 L35.7784,93.4788 L30.9076,98.3496 L23,98.3496 L23,89.5536 Z M40.446,107 L25.2148,107 C23.9964,107 23,106.0032 23,104.7852 L23,99.4572 L31.3664,99.4572 L36.6016,94.222 L40.446,94.222 L40.446,107 L40.446,107 Z M59,104.7852 C59,106.0032 58.0032,107 56.7852,107 L41.5536,107 L41.5536,94.2216 L45.3984,94.2216 L50.6336,99.4568 L59,99.4568 L59,104.7852 Z M59,98.3496 L51.0924,98.3496 L46.2216,93.4792 L46.2216,89.554 L59,89.554 L59,98.3496 Z M59,88.4464 L46.2216,88.4464 L46.2216,84.5212 L51.0924,79.6504 L59,79.6504 L59,88.4464 Z M59,78.5428 L50.6336,78.5428 L45.3984,83.7784 L41.5536,83.7784 L41.5536,71 L56.7852,71 C58.0032,71 59,71.9968 59,73.2148 L59,78.5428 Z" id="Shape" fill-opacity="0.5" fill="#FFFFFF"></path>
                </g>
            </g>
        </g>
    </g>
</svg>