<?xml version="1.0" encoding="utf-8"?>
<svg version="1.1" xmlns="http://www.w3.org/2000/svg" viewBox="0 0 155 20">
<path fill="#FFFFFF" d="M23.47,19.65v-8.8c0-3.31-2.11-5.54-5.51-5.57c-1.79-0.03-3.64,0.53-4.93,2.49
	c-0.97-1.55-2.49-2.49-4.63-2.49c-1.5,0-2.96,0.44-4.11,2.08V5.63H1.25v14.02h3.08v-7.77c0-2.43,1.35-3.72,3.43-3.72
	c2.02,0,3.05,1.32,3.05,3.69v7.8h3.08v-7.77c0-2.43,1.41-3.72,3.43-3.72c2.08,0,3.08,1.32,3.08,3.69v7.8H23.47z M69.05,5.63h-4.99
	V1.38h-3.08v4.25h-2.84v2.79h2.84v6.39c0,3.25,1.26,5.19,4.87,5.19c1.32,0,2.84-0.41,3.81-1.09l-0.88-2.61
	c-0.91,0.53-1.91,0.79-2.7,0.79c-1.52,0-2.02-0.94-2.02-2.35V8.42h4.99V5.63z M95.06,5.28c-1.76,0-2.9,0.82-3.69,2.05v-1.7h-3.02
	v14.02h3.05v-7.86c0-2.32,1-3.61,2.99-3.61c0.62,0,1.26,0.09,1.91,0.35l0.94-2.87C96.55,5.4,95.67,5.28,95.06,5.28L95.06,5.28z
	 M55.73,6.74c-1.47-0.97-3.49-1.47-5.72-1.47c-3.55,0-5.84,1.7-5.84,4.49c0,2.29,1.7,3.7,4.84,4.14l1.44,0.21
	c1.67,0.23,2.46,0.67,2.46,1.47c0,1.09-1.11,1.7-3.2,1.7c-2.11,0-3.64-0.67-4.66-1.47l-1.44,2.38C45.29,19.41,47.4,20,49.69,20
	c4.05,0,6.39-1.91,6.39-4.57c0-2.46-1.85-3.75-4.9-4.19l-1.44-0.21c-1.32-0.18-2.38-0.44-2.38-1.38c0-1.03,1-1.64,2.67-1.64
	c1.79,0,3.52,0.67,4.37,1.2L55.73,6.74z M137.43,5.28c-1.76,0-2.9,0.82-3.69,2.05v-1.7h-3.02v14.02h3.05v-7.86
	c0-2.32,1-3.61,2.99-3.61c0.62,0,1.26,0.09,1.91,0.35l0.94-2.87C138.93,5.4,138.05,5.28,137.43,5.28L137.43,5.28z M98.14,12.64
	c0,4.25,2.96,7.36,7.48,7.36c2.11,0,3.52-0.47,5.04-1.67l-1.47-2.46c-1.14,0.82-2.35,1.26-3.67,1.26c-2.43-0.03-4.22-1.79-4.22-4.49
	c0-2.7,1.79-4.46,4.22-4.49c1.32,0,2.52,0.44,3.67,1.26l1.47-2.46c-1.52-1.2-2.93-1.67-5.04-1.67C101.1,5.28,98.14,8.39,98.14,12.64
	L98.14,12.64z M126.7,12.64V5.63h-3.05v1.7c-0.97-1.26-2.43-2.05-4.43-2.05c-3.93,0-7.01,3.08-7.01,7.36c0,4.28,3.08,7.36,7.01,7.36
	c1.99,0,3.46-0.79,4.43-2.05v1.7h3.05V12.64z M115.35,12.64c0-2.46,1.61-4.49,4.25-4.49c2.52,0,4.22,1.94,4.22,4.49
	c0,2.55-1.7,4.49-4.22,4.49C116.96,17.13,115.35,15.1,115.35,12.64L115.35,12.64z M78.55,5.28c-4.11,0-6.98,2.99-6.98,7.36
	c0,4.46,2.99,7.36,7.18,7.36c2.11,0,4.05-0.53,5.75-1.97l-1.5-2.26c-1.17,0.94-2.67,1.47-4.08,1.47c-1.96,0-3.75-0.91-4.19-3.43
	h10.41c0.03-0.38,0.06-0.76,0.06-1.17C85.18,8.27,82.48,5.28,78.55,5.28L78.55,5.28z M78.49,8.01c1.96,0,3.23,1.23,3.55,3.4h-7.27
	C75.09,9.38,76.32,8.01,78.49,8.01L78.49,8.01z M155,12.64V0h-3.05v7.33c-0.97-1.26-2.43-2.05-4.43-2.05
	c-3.93,0-7.01,3.08-7.01,7.36c0,4.28,3.08,7.36,7.01,7.36c1.99,0,3.46-0.79,4.43-2.05v1.7H155V12.64z M143.65,12.64
	c0-2.46,1.61-4.49,4.25-4.49c2.52,0,4.22,1.94,4.22,4.49c0,2.55-1.7,4.49-4.22,4.49C145.26,17.13,143.65,15.1,143.65,12.64
	L143.65,12.64z M40.66,12.64V5.63h-3.05v1.7c-0.97-1.26-2.43-2.05-4.43-2.05c-3.93,0-7.01,3.08-7.01,7.36
	c0,4.28,3.08,7.36,7.01,7.36c1.99,0,3.46-0.79,4.43-2.05v1.7h3.05V12.64z M29.31,12.64c0-2.46,1.61-4.49,4.25-4.49
	c2.52,0,4.22,1.94,4.22,4.49c0,2.55-1.7,4.49-4.22,4.49C30.92,17.13,29.31,15.1,29.31,12.64z"/>
</svg>
