<?xml version="1.0" encoding="utf-8"?>
<svg version="1.1" xmlns="http://www.w3.org/2000/svg" viewBox="0 0 155 20">
<path fill="#FFFFFF" d="M150.77,0.37h-4.08c-1.26,0-2.23,0.33-2.78,1.6l-7.83,17.74h5.53c0,0,0.89-2.37,1.11-2.89h6.75
	c0.15,0.67,0.63,2.89,0.63,2.89h4.9L150.77,0.37L150.77,0.37z M144.28,12.84c0.45-1.11,2.12-5.42,2.12-5.42
	c-0.04,0.04,0.45-1.11,0.71-1.86l0.37,1.67c0,0,1,4.64,1.22,5.6H144.28z M137.23,0.82l-0.7,4.19l-0.48-0.22
	c-0.96-0.41-2.23-0.78-3.93-0.74c-2.08,0-3.01,0.85-3.01,1.67c0,0.89,1.11,1.52,2.97,2.41c3.04,1.37,4.45,3.04,4.42,5.27
	c-0.04,4.01-3.64,6.6-9.2,6.6c-2.37-0.04-4.64-0.48-5.9-1.04l0.74-4.34l0.67,0.3c1.74,0.71,2.86,1,4.97,1
	c1.52,0,3.15-0.59,3.15-1.89c0-0.85-0.67-1.45-2.75-2.41c-2-0.93-4.64-2.49-4.64-5.27c0.07-3.71,3.75-6.35,8.98-6.35
	C134.55,0,136.19,0.41,137.23,0.82L137.23,0.82z M112.81,19.7l3.3-19.37h5.27l-3.3,19.37H112.81z M114,0.33l-8.31,19.33h-5.6
	L95.37,2.86c-1.6-0.89-3.45-1.6-5.53-2.12l0.07-0.41h8.5c1.15,0.04,2.08,0.41,2.41,1.63l1.86,8.91l0.56,2.67l5.16-13.21H114z"/>
</svg>
