<?xml version="1.0" encoding="utf-8"?>
<svg version="1.1" xmlns="http://www.w3.org/2000/svg" viewBox="0 0 48 30">
<path fill="#17425F" d="M40,13.89C40,6.77,32.84,1,24,1S8,6.77,8,13.89s7.16,12.89,16,12.89c1.25,0,3.13-0.11,4.29-0.33l10.21,2.8
	l-4.74-5.5C37.5,21.39,40,18.02,40,13.89z M25,20.73H23.1v-1.98H25V20.73z M28.03,12.01c-0.28,0.42-0.84,1.03-1.7,1.85
	c-0.62,0.59-1.03,1.09-1.21,1.5c-0.19,0.41-0.28,1.01-0.28,1.81h-1.69c0-0.91,0.11-1.64,0.32-2.2c0.22-0.56,0.7-1.19,1.44-1.91
	c0,0,1.2-1.19,1.35-1.43c0.26-0.41,0.4-0.84,0.4-1.29c0-0.62-0.19-1.16-0.57-1.62c-0.38-0.46-1.01-0.69-1.88-0.69
	c-1.08,0-1.83,0.39-2.25,1.18c-0.23,0.44-0.37,1.07-0.4,1.89h-1.69c0-1.37,0.39-2.47,1.18-3.31c0.78-0.83,1.86-1.25,3.23-1.25
	c1.27,0,2.28,0.36,3.04,1.07c0.76,0.71,1.14,1.63,1.14,2.74C28.44,11.05,28.31,11.59,28.03,12.01z"/>
</svg>
