<?xml version="1.0" encoding="utf-8"?>
<svg version="1.1" xmlns="http://www.w3.org/2000/svg" viewBox="0 0 48 30">
<path fill="none" stroke="#a4aab3" stroke-width="1" d="M24,1.5c-8.56,0-15.5,5.56-15.5,12.43c0,6.87,6.94,12.43,15.5,12.43
	c1.21,0,3.03-0.11,4.16-0.32l9.34,2.46l-4.05-5.06c3.63-2.28,6.05-5.53,6.05-9.51C39.5,7.06,32.56,1.5,24,1.5L24,1.5z"/>
<path fill="#a4aab3" d="M20.25,9.4c0.19-0.53,0.45-0.99,0.8-1.38c0.35-0.39,0.77-0.69,1.28-0.91s1.07-0.32,1.69-0.32c0.56,0,1.08,0.08,1.54,0.24
	s0.86,0.4,1.2,0.7c0.34,0.31,0.6,0.68,0.78,1.12c0.19,0.44,0.28,0.95,0.28,1.53c0,0.37-0.04,0.71-0.14,1
	c-0.09,0.29-0.21,0.56-0.35,0.8s-0.31,0.46-0.5,0.67s-0.38,0.4-0.57,0.59c-0.19,0.18-0.38,0.36-0.57,0.55
	c-0.19,0.19-0.35,0.38-0.5,0.59c-0.15,0.21-0.27,0.44-0.36,0.68s-0.13,0.52-0.13,0.84v0.7h-1.53v-0.85c0.02-0.5,0.12-0.93,0.28-1.29
	c0.16-0.35,0.36-0.67,0.59-0.94c0.23-0.28,0.48-0.53,0.74-0.77c0.26-0.23,0.5-0.48,0.72-0.74s0.4-0.54,0.53-0.86
	c0.13-0.31,0.19-0.69,0.16-1.13c-0.05-0.66-0.26-1.18-0.64-1.55c-0.38-0.37-0.89-0.56-1.54-0.56c-0.43,0-0.8,0.08-1.12,0.23
	C22.59,8.53,22.33,8.74,22.12,9c-0.21,0.26-0.36,0.58-0.46,0.94c-0.1,0.36-0.14,0.75-0.14,1.17h-1.53
	C19.97,10.5,20.06,9.93,20.25,9.4z M25,19v2h-2v-2H25z"/>
</svg>
