<?xml version="1.0" encoding="utf-8"?>
<svg version="1.1" xmlns="http://www.w3.org/2000/svg" viewBox="0 0 48 30">
<path fill="#17425F" d="M40,13.89C40,6.77,32.84,1,24,1S8,6.77,8,13.89s7.16,12.89,16,12.89c1.25,0,3.13-0.11,4.29-0.33l10.21,2.8l-4.74-5.5
	C37.5,21.39,40,18.02,40,13.89z M25.1,21h-2v-2h2V21z M27.78,11.39c-0.09,0.29-0.21,0.56-0.35,0.8s-0.31,0.46-0.5,0.67
	s-0.38,0.4-0.57,0.59c-0.19,0.18-0.38,0.36-0.57,0.55c-0.19,0.19-0.35,0.38-0.5,0.59c-0.15,0.21-0.27,0.44-0.36,0.68
	s-0.13,0.52-0.13,0.84v0.7h-1.53v-0.85c0.02-0.5,0.12-0.93,0.28-1.29c0.16-0.35,0.36-0.67,0.59-0.94c0.23-0.28,0.48-0.53,0.74-0.77
	c0.26-0.23,0.5-0.48,0.72-0.74s0.4-0.54,0.53-0.86c0.13-0.31,0.19-0.69,0.16-1.13c-0.05-0.66-0.26-1.18-0.64-1.55
	c-0.38-0.37-0.89-0.56-1.54-0.56c-0.43,0-0.8,0.08-1.12,0.23C22.69,8.53,22.43,8.74,22.22,9c-0.21,0.26-0.36,0.58-0.46,0.94
	c-0.1,0.36-0.14,0.75-0.14,1.17h-1.53c-0.01-0.61,0.07-1.18,0.26-1.71c0.19-0.53,0.45-0.99,0.8-1.38c0.35-0.39,0.77-0.69,1.28-0.91
	s1.07-0.32,1.69-0.32c0.56,0,1.08,0.08,1.54,0.24s0.86,0.4,1.2,0.7c0.34,0.31,0.6,0.68,0.78,1.12c0.19,0.44,0.28,0.95,0.28,1.53
	C27.92,10.76,27.87,11.09,27.78,11.39z"/>
</svg>
