<?xml version="1.0" encoding="utf-8"?>
<svg version="1.1" xmlns="http://www.w3.org/2000/svg" viewBox="0 0 48 30">
<path fill="#A4AAB3" d="M38.84,29.37l-10.7-2.82c-1.17,0.2-2.95,0.31-4.14,0.31c-8.82,0-16-5.8-16-12.93C8,6.8,15.18,1,24,1
	s16,5.8,16,12.93c0,3.71-2.06,7.11-5.81,9.63L38.84,29.37z M28.18,25.53l7.99,2.1l-3.45-4.32l0.47-0.3c2.65-1.67,5.82-4.6,5.82-9.09
	C39,7.35,32.27,2,24,2C15.73,2,9,7.35,9,13.93c0,6.58,6.73,11.93,15,11.93c1.19,0,2.97-0.11,4.07-0.31L28.18,25.53z M21.03,7.82
	c0.78-0.83,1.86-1.25,3.23-1.25c1.27,0,2.28,0.36,3.04,1.07c0.76,0.71,1.14,1.63,1.14,2.74c0,0.67-0.14,1.22-0.42,1.64
	c-0.28,0.42-0.84,1.03-1.7,1.85c-0.62,0.59-1.03,1.09-1.21,1.5c-0.19,0.41-0.28,1.01-0.28,1.81h-1.69c0-0.91,0.11-1.64,0.32-2.2
	c0.22-0.56,0.7-1.19,1.44-1.91c0,0,1.2-1.19,1.35-1.43c0.26-0.41,0.4-0.84,0.4-1.29c0-0.62-0.19-1.16-0.57-1.62
	c-0.38-0.46-1.01-0.69-1.88-0.69c-1.08,0-1.83,0.39-2.25,1.18c-0.23,0.44-0.37,1.07-0.4,1.89h-1.69
	C19.85,9.75,20.25,8.65,21.03,7.82z M23.1,18.75H25v1.98H23.1V18.75z"/>
</svg>
