<?xml version="1.0" encoding="utf-8"?>
<svg version="1.1" xmlns="http://www.w3.org/2000/svg" viewBox="0 0 48 30">
<path fill="none" stroke="#a4aab3" stroke-width="1" d="M32.5,20.5h-7v-6h7V20.5z M38.5,26.5
	c0-0.55-0.45-1-1-1h-28c-0.55,0-1,0.45-1,1v3h30V26.5z M35.5,13v12.5h-24V13 M21.5,14.5h-7v11h7V14.5z M11.5,4.5
	C11.5,4.5,9,6.34,9,8s0.84,3,2.5,3s3-1.34,3-3c0,1.66,1.34,3,3,3s3-1.34,3-3c0,1.66,1.34,3,3,3s3-1.34,3-3c0,1.66,1.34,3,3,3
	s3-1.34,3-3c0,1.66,1.34,3,3,3S38,9.66,38,8s-2.5-3.5-2.5-3.5 M35.5,1.5c0-0.55-0.45-1-1-1h-22c-0.55,0-1,0.45-1,1v3h24V1.5z"/>
</svg>
