<svg xmlns="http://www.w3.org/2000/svg" viewBox="0 0 763.9116 231">
  <path fill="#eaeaea" d="M.9598 227.9503c0-4.2346 2.0077-7.634 7.9216-13.4127 3.2103-3.137 5.0784-5.8132 5.0784-7.2752 0-1.4377-2.22-4.6992-5.867-8.6193-10.4728-11.257-10.591-17.04-.567-27.713 8.2835-8.82 8.3194-10.139.497-18.286-3.2655-3.4-6.4155-7.441-7-8.978-2.6194-6.889-.2798-13.181 7.8562-21.128 6.6905-6.534 6.6084-8.149-.818-16.088-10.4328-11.153-10.5423-16.691-.5452-27.585 4.2772-4.661 6.444-7.849 6.444-9.483 0-1.647-2.1098-4.707-6.3847-9.259-10.106-10.761-9.926-16.703.85-28 7.407-7.766 7.366-9.547-.409-17.644C1.74 7.945-.102 3.985 1.971 1.487 2.992.2563 6.8695 0 24.4675 0h21.263l17.8648 5.0742c33.797 9.5996 43.9844 11.926 65.9813 15.0668 20.8993 2.984 116.7516 3.5358 357.383 2.057 118.62-.729 137.997-1.0554 147.9286-2.4914 23.3127-3.3708 31.6646-5.2273 64.1566-14.2612L718.63 0h21.63c19.6417 0 21.7164.162 22.5737 1.764 1.4503 2.7098-1.2028 7.8518-7.4074 14.3567-3.4564 3.6238-5.4662 6.598-5.4662 8.0892 0 1.533 1.924 4.257 5.5 7.789 10.757 10.623 10.978 17.202.945 28.136-8.351 9.101-8.353 10.226-.023 18.855 6.921 7.168 8.397 10.839 7.112 17.688-.498 2.657-2.472 5.525-7.111 10.33-8.33 8.628-8.329 9.754.023 18.855 10.034 10.933 9.813 17.512-.944 28.136-3.51 3.467-5.499 6.266-5.499 7.74 0 1.436 2.242 4.719 5.93 8.683 10.383 11.16 10.28 17.999-.43 28.576-7.414 7.322-7.37 9.245.407 17.559 5.561 5.944 8.074 11.046 6.609 13.416-.401.649-8.726 1.024-22.728 1.024h-22.095l-23.305-6.542c-24.926-6.997-40.332-10.419-59.131-13.131-11.675-1.685-101.652-2.419-442.256-3.607-71.704-.251-67.935-.703-122.398 14.7-12.594 3.562-23.371 6.949-23.95 7.528-.673.673-9.085 1.051-23.352 1.051H.96v-3.049zm650.0756-55.705c7.437-3.665 12.552-8.7435 16.1324-16.0172l3.292-6.688V75.5l-3.4298-6.326c-3.765-6.944-8.961-11.9532-15.9946-15.4192L646.4598 51.5l-140.5-.5c-77.275-.275-141.081-.3322-141.7913-.127-.934.2696-1.2108 2.3135-1 7.3883l.2913 7.0155 135.5-.1916c99.2177-.1404 136.927.117 140.829.9613 6.1475 1.3302 11.3104 5.3462 14.23 11.069 1.802 3.5323 1.941 6.1028 1.941 35.8845s-.139 32.3522-1.941 35.8845c-3.0288 5.9368-8.092 9.771-14.7488 11.1688-4.4948.944-42.743 1.1023-168.9508.6998l-163.1407-.52-7.3425 7.392-7.3425 7.392 176.983-.258L646.46 174.5l4.5756-2.2548zM381.9598 113.107c0-8.0986-.287-10.003-1.5818-10.5-.87-.334-7.8187-.607-15.4416-.607h-13.86l-5.8083 9.75c-3.194 5.3625-5.958 10.0875-6.141 10.5-.183.4125 9.379.75 21.25.75h21.583v-9.893z"/>
  <path fill="#cf655c" d="M2.3954 228.6928c-.92-2.398 1.2178-6.1086 7.5367-13.0813 7.383-8.146 7.391-9.5113.11-17.1115-6.671-6.9628-8.081-9.3692-8.081-13.7883 0-5.0332 1.111-6.9954 8.134-14.3752 4.155-4.3652 5.866-6.9433 5.866-8.8365 0-1.8932-1.711-4.4713-5.866-8.8366C2.902 145.107 1.96 143.359 1.96 137.57c0-4.2214.485-5.0904 6.501-11.6458 9.551-10.4077 9.5372-11.8367-.214-22.0614-8.5517-8.967-8.5213-14.5882.1284-23.741 9.3932-9.939 9.422-11.1218.5046-20.7073-9.5273-10.2413-9.4296-14.951.529-25.5077 8.4973-9.0076 8.6154-10.8708 1.1865-18.731-5.6312-5.958-7.6357-9.006-7.6357-11.61C2.9598 2.1924 5.6538 2 24.8878 2h21.9277l24.8222 6.9198c46.0906 12.849 54.7023 14.0905 102.616 14.7927 21.1278.3096 35.668.902 35.4867 1.4458-.169.5067-5.026 3.0847-10.7938 5.729C136.133 59.685 74.4456 113.754 49.3596 162l-3.8998 7.5-.5 30-.5 30-20.7736.2704c-16.6898.2172-20.8752.005-21.2908-1.0776zm693.744-5.2676c-36.1168-10.2854-52.4774-13.424-80.1796-15.381-9.0474-.6392-80.0252-1.028-188.75-1.0343-97.0053-.006-174.25-.393-174.25-.873 0-.475 4.6427-4.269 10.317-8.433 5.6744-4.164 13.8657-10.521 18.203-14.127l7.886-6.557 178.047-.261 178.0472-.26 5.6752-2.661c10.882-5.101 18.3248-14.345 20.8038-25.839.8224-3.812 1.0843-15.628.8536-38.5l-.3328-33-2.6604-5.676c-3.7246-7.945-9.8695-14.222-17.6956-18.075l-6.601-3.25-141.405-.5-141.405-.5-2.1542-6.649c-1.185-3.657-3.592-8.962-5.349-11.789-2.186-3.517-2.8055-5.279-1.9622-5.583.6778-.244 61.3074-.598 134.7324-.787 119.2846-.308 134.7778-.526 145.5-2.0508 19.3442-2.75 39.5216-7.1585 62.2952-13.61L717.0502 2h21.8958c12.1813 0 22.147.4064 22.462.916 1.145 1.8528-1.7027 6.7306-7.17 12.2814-7.527 7.642-7.512 9.6225.134 17.881 6.1422 6.6343 7.5878 9.3086 7.5878 14.0364 0 4.0283-2.02 7.6022-7 12.3852-4.4018 4.2276-7 8.324-7 11.037 0 .8998 2.6397 4.4097 5.866 7.7995 7.0957 7.4553 8.134 9.3272 8.134 14.6635 0 5.3363-1.0383 7.2082-8.134 14.6634-3.2263 3.39-5.866 6.8998-5.866 7.7997 0 2.713 2.5982 6.81 7 11.037 4.98 4.783 7 8.357 7 12.386 0 4.728-1.4456 7.402-7.588 14.037-7.6287 8.24-7.6502 10.229-.1924 17.881 6.3913 6.558 7.7804 8.891 7.7804 13.067 0 4.836-1.581 7.731-7.9743 14.603-4.0405 4.344-6.0257 7.303-6.0257 8.983 0 1.66 2.027 4.742 6.0087 9.136 5.867 6.474 7.8454 10.219 6.5264 12.353-.429.694-7.773 1.02-21.345.948l-20.691-.109-22.321-6.356zm-348.9296-65.1657c-19.9375-.1564-36.25-.532-36.25-.8345s3.0914-4.0582 6.8696-8.346c3.7783-4.2877 9.403-11.1617 12.4995-15.2757l5.629-7.4798 33.164-.6618c18.24-.364 77.445-.6617 131.566-.6617 70.505 0 99.021-.3167 100.587-1.117 4.101-2.0974 5.639-5.0663 5.639-10.883 0-5.8167-1.539-8.7856-5.64-10.883-1.567-.801-31.005-1.117-104.089-1.117-112.41 0-144.227-.5683-144.227-2.576 0-.692.935-3.433 2.077-6.091 1.142-2.6582 3.307-9.108 4.81-14.333l2.733-9.5 11.44-.6184c20.182-1.091 261.032-.9266 265.84.1816 5.794 1.3357 9.697 4.2274 12.122 8.9812 1.848 3.6236 1.977 5.9723 1.977 36.078v32.202l-2.543 4.3394c-1.588 2.7085-4.125 5.1846-6.75 6.588l-4.207 2.2482-128.5.022c-70.675.012-144.813-.106-164.75-.2625z"/>
  <path fill="#4b64a3" d="M3.9598 226.447c0-.8776 2.414-4.1496 5.3643-7.2712 9.684-10.246 9.956-12.892 2.164-21.0613-6.356-6.6635-8.776-11.6202-7.875-16.1258.379-1.895 3.144-5.8773 6.988-10.0663 8.707-9.488 8.7-11.5105-.074-20.8522-6.601-7.0292-8.536-11.4378-7.06-16.0892.383-1.206 3.576-5.3306 7.095-9.1657 5.546-6.0426 6.399-7.4855 6.399-10.8153 0-3.3297-.853-4.7726-6.396-10.813-9.758-10.6328-9.691-14.2605.46-24.831 5.05-5.2588 5.937-6.732 5.937-9.856 0-3.1306-.89-4.601-6.032-9.9548-9.694-10.096-9.803-15.093-.532-24.507 5.872-5.9627 7.998-10.0574 6.965-13.4203-.357-1.165-2.993-4.593-5.857-7.618C5.93 8.112 3.645 4.648 4.662 3.631 5.009 3.2842 14.1058 3 24.8768 3l19.583.0002 25 7.0324c45.192 12.7125 60.8883 14.9432 105.25 14.9578 16.0874.005 29.245.347 29.239.7596-.006.4125-5.744 3.551-12.75 6.974-36.268 17.7204-69.7035 41.6524-98.8094 70.7244-20.7026 20.6784-34.8186 38.93-44.5923 57.657L44.46 167.5l-.5 30-.5 30-19.75.271c-17.527.2408-19.75.0917-19.75-1.324zm693-4.5077c-24.4292-7.0354-38.3085-10.258-56.775-13.182-13.6694-2.1644-14.4728-2.1745-198.475-2.4932-101.6125-.176-184.75-.668-184.75-1.095 0-.426 2.8125-2.758 6.25-5.182 3.4375-2.424 10.8445-8.13 16.46-12.68l10.21-8.273 177.29-.266 177.29-.266 5.7467-2.32c7.5065-3.031 15.5618-10.494 19.836-18.377l3.4173-6.302v-77l-2.9503-5.828c-3.8218-7.549-12.666-15.77-20.265-18.837l-5.7848-2.335L504.097 47l-140.3628-.5-1.7642-5.7023c-.9703-3.1363-2.9668-7.7544-4.4366-10.2624-1.9762-3.3722-2.334-4.6837-1.373-5.0344.7147-.261 61.8244-.615 135.7994-.787 131.7428-.306 134.7768-.356 148-2.451 19.3324-3.063 30.4544-5.588 56.604-12.849L719.668 3h20.146c23.9718 0 23.799-.1383 13.6458 10.9254-8.8496 9.6433-8.7444 11.775 1.0897 22.0746 8.376 8.7726 8.147 13.1652-1.2047 23.1225-8.7312 9.2964-8.728 11.316.0333 20.863 9.953 10.8453 9.953 15.1837 0 26.029-8.761 9.5468-8.764 11.5666-.033 20.863 9.188 9.783 9.536 14.3482 1.722 22.6225-10.336 10.945-10.488 12.8962-1.746 22.4224 3.845 4.189 6.609 8.1712 6.988 10.0663.92 4.5973-1.609 9.6738-8.092 16.2424-7.639 7.741-7.736 10.647-.601 18.035 5.117 5.299 8.346 9.538 8.346 10.957 0 .428-9.562.742-21.25.699l-21.25-.078-20.5-5.904zm-349.75-63.6798c-19.9375-.1564-36.25-.532-36.25-.8345s3.0914-4.0582 6.8696-8.346c3.7783-4.2877 9.403-11.1617 12.4995-15.2757l5.629-7.4798 33.164-.6618c18.24-.364 77.445-.6617 131.566-.6617 70.505 0 99.021-.3167 100.587-1.117 4.101-2.0974 5.639-5.0663 5.639-10.883 0-5.8167-1.539-8.7856-5.64-10.883-1.567-.801-31.005-1.117-104.089-1.117-112.41 0-144.227-.5683-144.227-2.576 0-.692.935-3.433 2.077-6.091 1.142-2.6582 3.307-9.108 4.81-14.333l2.733-9.5 11.44-.6184c20.182-1.091 261.032-.9266 265.84.1816 5.794 1.3357 9.697 4.2274 12.122 8.9812 1.848 3.6236 1.977 5.9723 1.977 36.078v32.202l-2.543 4.3394c-1.588 2.7085-4.125 5.1846-6.75 6.588l-4.207 2.2482-128.5.022c-70.675.012-144.813-.106-164.75-.2625z"/>
  <path fill="#3f5898" d="M3.9598 226.447c0-.8776 2.414-4.1496 5.3643-7.2712 9.684-10.246 9.956-12.892 2.164-21.0613-6.356-6.6635-8.776-11.6202-7.875-16.1258.379-1.895 3.144-5.8773 6.988-10.0663 8.707-9.488 8.7-11.5105-.074-20.8522-6.601-7.0292-8.536-11.4378-7.06-16.0892.383-1.206 3.576-5.3306 7.095-9.1657 5.546-6.0426 6.399-7.4855 6.399-10.8153 0-3.3297-.853-4.7726-6.396-10.813-9.758-10.6328-9.691-14.2605.46-24.831 5.05-5.2588 5.937-6.732 5.937-9.856 0-3.1306-.89-4.601-6.032-9.9548-9.694-10.096-9.803-15.093-.532-24.507 5.872-5.9627 7.998-10.0574 6.965-13.4203-.357-1.165-2.993-4.593-5.857-7.618C5.93 8.112 3.645 4.648 4.662 3.631 5.009 3.2842 14.1058 3 24.8768 3l19.583.0002 25 7.0324c45.192 12.7125 60.8883 14.9432 105.25 14.9578 16.0874.005 29.245.347 29.239.7596-.006.4125-5.744 3.551-12.75 6.974-36.268 17.7204-69.7035 41.6524-98.8094 70.7244-20.7026 20.6784-34.8186 38.93-44.5923 57.657L44.46 167.5l-.5 30-.5 30-19.75.271c-17.527.2408-19.75.0917-19.75-1.324zm693-4.5077c-24.4292-7.0354-38.3085-10.258-56.775-13.182-13.6694-2.1644-14.4728-2.1745-198.475-2.4932-101.6125-.176-184.75-.668-184.75-1.095 0-.426 2.8125-2.758 6.25-5.182 3.4375-2.424 10.8445-8.13 16.46-12.68l10.21-8.273 177.29-.266 177.29-.266 5.7467-2.32c7.5065-3.031 15.5618-10.494 19.836-18.377l3.4173-6.302v-77l-2.9503-5.828c-3.8218-7.549-12.666-15.77-20.265-18.837l-5.7848-2.335L504.097 47l-140.3628-.5-1.7642-5.7023c-.9703-3.1363-2.9668-7.7544-4.4366-10.2624-1.9762-3.3722-2.334-4.6837-1.373-5.0344.7147-.261 61.8244-.615 135.7994-.787 131.7428-.306 134.7768-.356 148-2.451 19.3324-3.063 30.4544-5.588 56.604-12.849L719.668 3h20.146c23.9718 0 23.799-.1383 13.6458 10.9254-8.8496 9.6433-8.7444 11.775 1.0897 22.0746 8.376 8.7726 8.147 13.1652-1.2047 23.1225-8.7312 9.2964-8.728 11.316.0333 20.863 9.953 10.8453 9.953 15.1837 0 26.029-8.761 9.5468-8.764 11.5666-.033 20.863 9.188 9.783 9.536 14.3482 1.722 22.6225-10.336 10.945-10.488 12.8962-1.746 22.4224 3.845 4.189 6.609 8.1712 6.988 10.0663.92 4.5973-1.609 9.6738-8.092 16.2424-7.639 7.741-7.736 10.647-.601 18.035 5.117 5.299 8.346 9.538 8.346 10.957 0 .428-9.562.742-21.25.699l-21.25-.078-20.5-5.904zm-314.25-65.6175c-1.5596-.4175-1.75-1.9717-1.75-14.288 0-11.6794.245-13.9138 1.5818-14.4268.87-.334 50.1673-.607 109.5497-.607 120.9695 0 112.3566.5436 115.925-7.3163 2.391-5.266 2.391-8.1014 0-13.3674-3.8242-8.4233 5.5303-7.7808-117.8065-8.092l-109.25-.2754V70.09l3.25-.5865c1.7875-.3226 60.175-.4555 129.75-.2953 124.4316.2864 126.5555.324 129.8955 2.2912 1.8675 1.1 4.3425 3.2704 5.5 4.8232 2.0418 2.739 2.1045 3.8267 2.1045 36.5 0 33.6603-.001 33.6782-2.3288 36.9417-5.188 7.2738 5.8404 6.7187-136.6712 6.88-70.4.08-128.7875-.0655-129.75-.323z"/>
  <path fill="#cc2d25" d="M3.9598 226.447c0-.8776 2.414-4.1496 5.3643-7.2712 9.684-10.246 9.956-12.892 2.164-21.0613-6.356-6.6635-8.776-11.6202-7.875-16.1258.379-1.895 3.144-5.8773 6.988-10.0663 8.707-9.488 8.7-11.5105-.074-20.8522-6.601-7.0292-8.536-11.4378-7.06-16.0892.383-1.206 3.576-5.3306 7.095-9.1657 5.546-6.0426 6.399-7.4855 6.399-10.8153 0-3.3297-.853-4.7726-6.396-10.813-9.758-10.6328-9.691-14.2605.46-24.831 5.05-5.2588 5.937-6.732 5.937-9.856 0-3.1306-.89-4.601-6.032-9.9548-9.694-10.096-9.803-15.093-.532-24.507 5.872-5.9627 7.998-10.0574 6.965-13.4203-.357-1.165-2.993-4.593-5.857-7.618C5.93 8.112 3.645 4.648 4.662 3.631 5.009 3.2842 14.1058 3 24.8768 3l19.583.0002 25 7.0324c45.192 12.7125 60.8883 14.9432 105.25 14.9578 16.0874.005 29.245.347 29.239.7596-.006.4125-5.744 3.551-12.75 6.974-36.268 17.7204-69.7035 41.6524-98.8094 70.7244-20.7026 20.6784-34.8186 38.93-44.5923 57.657L44.46 167.5l-.5 30-.5 30-19.75.271c-17.527.2408-19.75.0917-19.75-1.324zm693-4.5077c-24.4292-7.0354-38.3085-10.258-56.775-13.182-13.6694-2.1644-14.4728-2.1745-198.475-2.4932-101.6125-.176-184.75-.668-184.75-1.095 0-.426 2.8125-2.758 6.25-5.182 3.4375-2.424 10.8445-8.13 16.46-12.68l10.21-8.273 177.29-.266 177.29-.266 5.7467-2.32c7.5065-3.031 15.5618-10.494 19.836-18.377l3.4173-6.302v-77l-2.9503-5.828c-3.8218-7.549-12.666-15.77-20.265-18.837l-5.7848-2.335L504.097 47l-140.3628-.5-1.7642-5.7023c-.9703-3.1363-2.9668-7.7544-4.4366-10.2624-1.9762-3.3722-2.334-4.6837-1.373-5.0344.7147-.261 61.8244-.615 135.7994-.787 131.7428-.306 134.7768-.356 148-2.451 19.3324-3.063 30.4544-5.588 56.604-12.849L719.668 3h20.146c23.9718 0 23.799-.1383 13.6458 10.9254-8.8496 9.6433-8.7444 11.775 1.0897 22.0746 8.376 8.7726 8.147 13.1652-1.2047 23.1225-8.7312 9.2964-8.728 11.316.0333 20.863 9.953 10.8453 9.953 15.1837 0 26.029-8.761 9.5468-8.764 11.5666-.033 20.863 9.188 9.783 9.536 14.3482 1.722 22.6225-10.336 10.945-10.488 12.8962-1.746 22.4224 3.845 4.189 6.609 8.1712 6.988 10.0663.92 4.5973-1.609 9.6738-8.092 16.2424-7.639 7.741-7.736 10.647-.601 18.035 5.117 5.299 8.346 9.538 8.346 10.957 0 .428-9.562.742-21.25.699l-21.25-.078-20.5-5.904z"/>
  <path fill="#bd2a21" d="M4.6664 227.3732c-1.0514-1.0513 1.8982-5.6537 6.3274-9.8732 5.4117-5.1555 7.3235-9.4296 5.8965-13.1828-.581-1.528-3.728-5.5607-6.9934-8.9612-5.498-5.725-5.938-6.5244-5.938-10.7947 0-4.2555.465-5.112 6.025-11.089 9.965-10.7118 10-13.33.313-23.6443-6.086-6.4802-6.339-6.9533-6.339-11.8856 0-4.983.201-5.3458 6.727-12.105 5.977-6.1915 6.727-7.406 6.727-10.8942 0-3.4177-.727-4.6713-5.614-9.6845-6.494-6.663-7.84-8.939-7.84-13.2587 0-4.304 1.346-6.596 7.713-13.13 4.664-4.786 5.486-6.19 5.486-9.3642 0-3.0545-.808-4.5778-4.437-8.37-6.966-7.2805-8.76-10.1144-8.76-13.8363 0-4.6006 1.225-6.704 8.134-13.9628 8.231-8.649 8.026-11.148-1.77-21.5124-2.95-3.1217-5.364-6.159-5.364-6.75C4.959 4.3443 11.379 4 24.987 4h20.028l-.525 82.75c-.2887 45.5125-.7645 95.9125-1.0572 112L42.9006 228H24.097c-10.342 0-19.086-.282-19.4306-.6268zm713.0633.0633c-1.1534-1.1533-46.7223-13.5275-58.77-15.959-29.5397-5.9614-25.1282-5.7864-156.25-6.1964l-120.75-.377v-12.452c0-6.848.1126-12.558.25-12.689.1376-.13 59.6598-.468 132.2716-.75l132.0215-.513 6.5835-3.241c7.929-3.903 14.9513-11.056 18.6935-19.04l2.68-5.718v-75l-2.68-5.718c-5.659-12.074-17.4213-20.866-30.4305-22.746-4.28-.618-54.7113-1.003-133.1395-1.015l-126.25-.02V26l113.75-.0008c67.8604-.0005 118.1877-.4044 124.75-1.0013 27.4543-2.497 44.0986-5.805 76.705-15.242l21.295-6.164 20.75-.335c24.693-.399 24.5225-.526 14.25 10.667-8.8496 9.643-8.7444 11.775 1.0897 22.074 8.376 8.772 8.147 13.165-1.2047 23.122-8.7312 9.296-8.728 11.316.0333 20.863 9.953 10.845 9.953 15.184 0 26.029-8.761 9.547-8.764 11.567-.033 20.863 9.188 9.783 9.536 14.348 1.722 22.622-10.336 10.945-10.488 12.896-1.746 22.422 3.845 4.189 6.609 8.171 6.988 10.066.92 4.597-1.609 9.673-8.092 16.242-7.639 7.741-7.736 10.647-.601 18.035 5.117 5.298 8.346 9.537 8.346 10.956 0 .8782-41.356 1.088-42.23.214z"/>
  <path fill="#ae271d" d="M719.2054 227.173c-.996-.6324-1.202-23.6448-1-111.7347L718.4598 4.5l20.7264-.2702C763.0994 3.918 762.4968 3.5456 753.376 13c-2.9184 3.025-5.778 6.759-6.3546 8.2978-1.4155 3.7772.495 8.0488 5.9045 13.2022 9.98 9.5084 9.414 16.269-2.296 27.4014-4.065 3.8642-5.358 7.9155-3.603 11.29.66 1.2697 3.84 5.0822 7.066 8.472 5.604 5.8887 5.866 6.3942 5.866 11.3366 0 4.9424-.262 5.448-5.866 11.3366-3.227 3.39-6.407 7.2023-7.067 8.472-1.755 3.3745-.462 7.4258 3.603 11.29 11.71 11.1324 12.276 17.893 2.295 27.4014-2.31 2.2-4.828 5.4625-5.596 7.25-1.889 4.394-.213 8.18 6.51 14.7058 8.584 8.332 8.288 13.2495-1.421 23.5863-8.861 9.436-8.858 11.485.04 20.958 3.575 3.807 6.5 7.614 6.5 8.461 0 1.334-2.579 1.538-19.25 1.525-10.588-.008-19.815-.373-20.505-.811z"/>
</svg>
