<?xml version="1.0" encoding="utf-8"?>
<svg version="1.1" xmlns="http://www.w3.org/2000/svg" viewBox="0 0 140 42">
	<path fill="#DF0814" d="M30.11,4.1c-4.89,0-9.75-0.66-14.29-1.93L8.08,0v42l9.6-2.69c3.32-0.93,6.86-1.41,10.43-1.41H70V4.1H30.11z"
		/>
	<path fill="#CF0C11" d="M124.78,40l7.14,2V0l-6.49,1.82c-5.37,1.51-11.1,2.28-16.89,2.28H70H30.11c-4.89,0-9.75-0.66-14.29-1.93
		L8.08,0v42l9.6-2.69c3.32-0.93,6.86-1.41,10.43-1.41H70h39.24C114.56,37.9,119.83,38.61,124.78,40z"/>
	<path fill="#C60D10" d="M8.08,0H5.37v0H0.15c0,0.64,0.25,1.25,0.71,1.7l1.43,1.43C2.56,3.4,2.71,3.77,2.71,4.15
		c0,0.39-0.15,0.75-0.42,1.02L0.77,6.69c-0.94,0.94-0.94,2.47,0,3.41l1.41,1.41c0.57,0.56,0.57,1.48,0,2.05l-1.43,1.43
		c-0.94,0.94-0.94,2.47,0,3.41l1.47,1.47c0.57,0.56,0.57,1.48,0,2.05l-1.52,1.52C0.23,23.9,0,24.52,0,25.14
		c0,0.62,0.23,1.25,0.71,1.72l1.52,1.52c0.57,0.56,0.57,1.48,0,2.05l-1.47,1.47c-0.94,0.94-0.94,2.47,0,3.41l1.43,1.43
		c0.57,0.56,0.57,1.48,0,2.05l-1.41,1.41c-0.5,0.5-0.73,1.16-0.7,1.81h8V0z"/>
	<path fill="#B40F0C" d="M131.92,42h2.71v0h5.23c0-0.64-0.25-1.25-0.71-1.7l-1.43-1.43c-0.27-0.27-0.42-0.64-0.42-1.02
		c0-0.39,0.15-0.75,0.42-1.02l1.51-1.51c0.94-0.94,0.94-2.47,0-3.41l-1.41-1.41c-0.57-0.56-0.57-1.48,0-2.05l1.43-1.43
		c0.94-0.94,0.94-2.47,0-3.41l-1.47-1.47c-0.57-0.56-0.57-1.48,0-2.05l1.52-1.52c0.48-0.47,0.71-1.1,0.71-1.72
		c0-0.62-0.23-1.25-0.71-1.72l-1.52-1.52c-0.57-0.56-0.57-1.48,0-2.05l1.47-1.47c0.94-0.94,0.94-2.47,0-3.41l-1.43-1.43
		c-0.57-0.56-0.57-1.48,0-2.05l1.41-1.41c0.5-0.5,0.73-1.16,0.7-1.81h-8V42z"/>
	<path fill="#3D61AA" d="M53.45,30.84c-3.17,0-5.75-2.58-5.75-5.75v-9.15c0-3.17,2.58-5.75,5.75-5.75h62.81
		c3.17,0,5.75,2.58,5.75,5.75v9.15c0,3.17-2.58,5.75-5.75,5.75H53.45z"/>
	<path fill="#FFFFFF" d="M116.26,12.2c2.07,0,3.75,1.68,3.75,3.75v9.15c0,2.07-1.68,3.75-3.75,3.75H53.45
		c-2.07,0-3.75-1.68-3.75-3.75v-9.15c0-2.07,1.68-3.75,3.75-3.75H116.26 M116.26,8.2H53.45c-4.27,0-7.75,3.47-7.75,7.75v9.15
		c0,4.27,3.47,7.75,7.75,7.75h62.81c4.27,0,7.75-3.47,7.75-7.75v-9.15C124,11.67,120.53,8.2,116.26,8.2L116.26,8.2z"/>
	<path fill="#395A9D" d="M70,12.2h46.73c1.81,0,3.27,1.46,3.27,3.26v10.11c0,1.8-1.46,3.26-3.27,3.26H70"/>
	<path fill="#FFFFFF" d="M53.34,18.25H70v4.53H53.34c-1.25,0-2.26-1.01-2.26-2.26v0C51.07,19.26,52.09,18.25,53.34,18.25z"/>
	<path fill="#ECECEC" d="M109.19,22.78H70v-4.53h39.19c1.25,0,2.26,1.01,2.26,2.26v0C111.45,21.77,110.44,22.78,109.19,22.78z"/>
	<path fill="#ECECEC" d="M27.19,10.55c-9.21,6.13-16.01,13.66-19.11,20.38V42l9.6-2.69c3.32-0.93,6.86-1.41,10.43-1.41h17.6
		C61.47,27.34,70.15,12.71,65.09,5.16c-0.25-0.38-0.54-0.73-0.85-1.05H39.3C35.34,5.71,31.23,7.86,27.19,10.55z"/>
</svg>
