<svg xmlns="http://www.w3.org/2000/svg" viewBox="1298 -556.759 99.463 113.418"><defs><style>.cls-1 { fill: #da5700; } .cls-2 { fill: #c34d00; } .cls-3 { fill: #cb3b00; } .cls-4 { fill: #b53400; } .cls-5 { fill: #f1c670; } .cls-6 { fill: #d7b164; } .cls-7 { fill: #d3260b; } .cls-8 { fill: #46381b; } .cls-9 { fill: #3e3218; } .cls-10 { fill: #bc2109; }</style></defs><g id="Group_91" data-name="Group 91"><path id="Path_357" d="M1394.5-538.045l2.963-6.967H1298l2.7 6.319a41.63 41.63 0 0 1 3.4 16.527v45.529a35.441 35.441 0 0 1-2.872 14.015l-3.228 7.615h99.463l-4.013-9.4a25.82 25.82 0 0 1-2.095-10.205v-48.2a38.2 38.2 0 0 1 3.145-15.233z" data-name="Path 357" class="cls-1"/><path id="Path_358" d="M1394.496-538.045l2.967-6.967h-50.154v90.005h50.154l-4.013-9.4a25.82 25.82 0 0 1-2.095-10.205v-48.2a38.2 38.2 0 0 1 3.141-15.233z" data-name="Path 358" class="cls-2"/><path id="Rectangle_156" d="M1298-455.006h99.462v11.666H1298z" data-name="Rectangle 156" class="cls-3"/><path id="Rectangle_157" d="M1347.364-455.006h50.099v11.666h-50.099z" data-name="Rectangle 157" class="cls-4"/><path id="Rectangle_158" d="M1298-556.759h99.462v11.666H1298z" data-name="Rectangle 158" class="cls-3"/><path id="Rectangle_159" d="M1347.364-556.759h50.099v11.666h-50.099z" data-name="Rectangle 159" class="cls-4"/><path id="Path_359" d="M1348.215-526.53a31.49 31.49 0 1 1-20.771 7.821 31.058 31.058 0 0 1 20.771-7.821z" data-name="Path 359" class="cls-5"/><path id="Path_360" d="M1348.215-526.531a31.491 31.491 0 1 1 0 62.981c-.122 0-.243 0-.9-.013 0-19.364-.008-44.527-.008-62.969.025.001.386.001.908.001z" data-name="Path 360" class="cls-6"/><path id="Path_361" d="M1355.966-537.252a1.75 1.75 0 0 0-1.684-1.193 108.185 108.185 0 0 0-33.118 5.543 1.6 1.6 0 0 0-.912 2.1c.631 2.245 1.263 4.42 1.894 6.6a1.236 1.236 0 0 0 1.474 1.057c.07 0 .14-.07.21-.07a103.905 103.905 0 0 1 31.785-8.073 1.252 1.252 0 0 0 1.263-1.263c-.281-1.544-.562-3.087-.912-4.701z" data-name="Path 361" class="cls-7"/><path id="Path_363" d="M1347.328276-512.278676c-11.337305.394849-10.709398.462763-20.73666 4.8153-4.02003 2.152745-8.118488 4.609591-8.332366 7.318948-.188846 2.635304-.10808 5.937239-.001477 11.618299.227374 2.411416 3.859499 4.887673 3.859499 4.887673s11.224178 7.797265 25.185986 6.81282c4.184733-15.611785 5.662034-23.906162.025018-35.45304z" data-name="Path 363" class="cls-8"/><path id="Path_364" d="M1347.29551-476.84244c13.827877-.369061 20.238645-4.131862 25.968194-7.080178 1.868146-1.236592 4.6564-2.483278 4.865189-5.192964.188846-2.635304.1078-7.063875.00049-12.74616a3.47641188 3.47641188 0 0 0-2.280418-3.030209s-14.392168-7.8183-28.539861-7.387954c-.000553 16.507904-.010605 23.129967-.013594 35.437465z" data-name="Path 364" class="cls-9"/><path id="Path_362" d="M1355.966-537.252a1.75 1.75 0 0 0-1.684-1.193c-2.361.029-4.126.06-6.99.278v8.037c2.574-.472 5.193-.877 8.323-1.158a1.252 1.252 0 0 0 1.263-1.263c-.28-1.544-.561-3.087-.912-4.701z" data-name="Path 362" class="cls-10"/></g></svg>