<?xml version="1.0" encoding="utf-8"?>
<svg version="1.1" xmlns="http://www.w3.org/2000/svg" viewBox="0 0 140 62">
	<path fill="#759F28" d="M122.13,60.02l8.09,1.98V0l-7.35,1.8c-6.08,1.49-12.57,2.25-19.12,2.25H70H34.73
		c-5.54,0-11.03-0.65-16.18-1.9L9.78,0v62l10.87-2.66c3.76-0.92,7.76-1.39,11.8-1.39H70h34.54
		C110.56,57.95,116.53,58.66,122.13,60.02"/>
	<path fill="#7CAA2B" d="M34.73,4.04c-5.54,0-11.03-0.65-16.18-1.9L9.78,0v62l10.87-2.66c3.76-0.92,7.76-1.39,11.8-1.39H70V4.04
		H34.73z"/>
	<path fill="#007A43" d="M20.66,59.34c3.76-0.92,7.76-1.39,11.8-1.39H70h34.54c6.02,0,11.99,0.7,17.59,2.07l8.09,1.98V41.57H9.78V62
		L20.66,59.34z"/>
	<path fill="#00713E" d="M70,41.57v16.38h34.54c6.02,0,11.99,0.7,17.59,2.07l8.09,1.98V41.57H70z"/>
	<path fill="#ACC313" d="M6.5,0L6.5,0H0.18c0,0.79,0.3,1.54,0.85,2.1l1.74,1.76C3.1,4.2,3.28,4.65,3.28,5.12
		c0,0.48-0.18,0.92-0.51,1.26L0.94,8.24c-1.14,1.16-1.14,3.05,0,4.21l1.71,1.74c0.69,0.69,0.69,1.83,0,2.52l-1.73,1.76
		c-1.14,1.16-1.14,3.05,0,4.21l1.78,1.81c0.69,0.7,0.69,1.83,0,2.52l-1.84,1.87C0.28,29.46,0,30.23,0,31c0,0.77,0.28,1.54,0.86,2.12
		l1.84,1.87c0.69,0.69,0.69,1.83,0,2.52l-1.78,1.81c-1.14,1.16-1.14,3.05,0,4.21l1.73,1.76c0.69,0.7,0.69,1.83,0,2.52l-1.71,1.74
		c-1.14,1.16-1.14,3.05,0,4.21l1.83,1.86c0.33,0.34,0.51,0.78,0.51,1.26c0,0.48-0.18,0.93-0.51,1.26L1.03,59.9
		c-0.55,0.56-0.85,1.3-0.85,2.1H6.5h3.28V0H6.5z"/>
	<path fill="#008349" d="M2.65,45.29c0.69,0.7,0.69,1.83,0,2.52l-1.71,1.74c-1.14,1.16-1.14,3.05,0,4.21l1.83,1.86
		c0.33,0.34,0.51,0.78,0.51,1.26c0,0.48-0.18,0.93-0.51,1.26L1.03,59.9c-0.55,0.56-0.85,1.3-0.85,2.1H6.5h3.28V41.57H0.07
		c0.03,0.71,0.31,1.41,0.84,1.95L2.65,45.29z"/>
	<path fill="#ACC313" d="M133.5,62L133.5,62h6.33c0-0.79-0.3-1.54-0.85-2.1l-1.74-1.76c-0.33-0.34-0.51-0.78-0.51-1.26
		c0-0.48,0.18-0.93,0.51-1.26l1.83-1.86c1.14-1.16,1.14-3.05,0-4.21l-1.71-1.74c-0.68-0.7-0.68-1.83,0-2.52l1.73-1.76
		c1.14-1.16,1.14-3.05,0-4.2l-1.78-1.81c-0.69-0.69-0.69-1.83,0-2.52l1.84-1.87c0.58-0.58,0.86-1.35,0.86-2.12
		c0-0.77-0.28-1.54-0.86-2.12l-1.84-1.87c-0.69-0.69-0.69-1.83,0-2.52l1.78-1.81c1.14-1.16,1.14-3.05,0-4.21l-1.73-1.76
		c-0.68-0.69-0.68-1.83,0-2.52l1.71-1.74c1.14-1.16,1.14-3.05,0-4.21l-1.83-1.86c-0.33-0.34-0.51-0.78-0.51-1.26
		c0-0.48,0.18-0.93,0.51-1.26l1.74-1.76c0.55-0.56,0.85-1.3,0.85-2.1h-6.33h-3.28v62H133.5z"/>
	<path fill="#007A43" d="M130.22,62h3.28h6.33c0-0.79-0.3-1.54-0.85-2.1l-1.74-1.76c-0.33-0.34-0.51-0.78-0.51-1.26
		c0-0.48,0.18-0.93,0.51-1.26l1.83-1.86c1.14-1.16,1.14-3.05,0-4.21l-1.71-1.74c-0.68-0.69-0.68-1.83,0-2.52l1.73-1.76
		c0.53-0.54,0.81-1.24,0.84-1.95h-9.71V62z"/>
	<path fill="#EDEDED" d="M86.15,51.79H70v-4.47h16.15c1.22,0,2.2,1,2.2,2.23C88.35,50.79,87.36,51.79,86.15,51.79"/>
	<path fill="#FFFFFF" d="M53.85,47.32H70v4.47H53.85c-1.22,0-2.2-1-2.2-2.23C51.65,48.32,52.64,47.32,53.85,47.32"/>
	<path fill="#007A43" d="M86.15,36.09H70v-4.47h16.15c1.22,0,2.2,1,2.2,2.23C88.35,35.09,87.36,36.09,86.15,36.09"/>
	<path fill="#008349" d="M53.85,31.62H70v4.47H53.85c-1.22,0-2.2-1-2.2-2.23C51.65,32.62,52.64,31.62,53.85,31.62"/>
	<path fill="#FFE900" d="M107.01,11.63H33.01c-1.79,0-3.26,1.49-3.26,3.31v1.82h-0.02c0.06,4.7,0.12,9.4,0.18,14.1
		c0.02,1.7,1.58,2.5,3.49,1.84c23.73-8.23,49.47-8.23,73.2,0c1.9,0.66,3.46-0.13,3.49-1.84c0.06-4.69,0.12-9.39,0.18-14.08v-1.84
		C110.26,13.12,108.8,11.63,107.01,11.63"/>
	<path fill="#EFD700" d="M107.01,11.63H70v14.9c12.37,0,24.74,2.06,36.6,6.17c1.9,0.66,3.46-0.13,3.49-1.84
		c0.06-4.69,0.12-9.39,0.18-14.08v-1.84C110.26,13.12,108.8,11.63,107.01,11.63"/>
</svg>
