<svg width="250" height="250" xmlns="http://www.w3.org/2000/svg">
 <!-- Created with Method Draw - http://github.com/duopixel/Method-Draw/ -->
 <g>
  <title>background</title>
  <rect fill="#fff" id="canvas_background" height="252" width="252" y="-1" x="-1"/>
  <g display="none" overflow="visible" y="0" x="0" height="100%" width="100%" id="canvasGrid">
   <rect fill="url(#gridpattern)" stroke-width="0" y="0" x="0" height="100%" width="100%"/>
  </g>
 </g>
 <g>
  <title>Layer 1</title>
  <ellipse ry="13" rx="88" id="svg_1" cy="51.499844" cx="125.499758" stroke-width="1.5" stroke="#000" fill="#fff"/>
  <ellipse ry="13" rx="88" id="svg_2" cy="51.499844" cx="125.499758" stroke-width="1.5" stroke="#000" fill="#fff"/>
  <ellipse ry="20.5" rx="92.5" id="svg_3" cy="191.999844" cx="124.999758" stroke-width="1.5" stroke="#000" fill="#fff"/>
  <line stroke-linecap="null" stroke-linejoin="null" id="svg_4" y2="189.499844" x2="40.499758" y1="54.499844" x1="40.499758" fill-opacity="null" stroke-opacity="null" stroke-width="1.5" stroke="#000" fill="none"/>
  <line stroke-linecap="null" stroke-linejoin="null" id="svg_5" y2="190.499844" x2="218.499758" y1="57.499844" x1="212.499758" fill-opacity="null" stroke-opacity="null" stroke-width="1.5" stroke="#000" fill="none"/>
  <path d="m56.499758,84.499844c1,2 2,3 3,5c2,4 1.234634,5.152237 2,7c1.082397,2.613129 3,3 3,4c0,1 1.320358,1.974182 1,0c-0.506546,-3.121445 -2.343155,-7.876053 -4,-13c-1.268555,-3.923111 -0.61731,-6.076126 -1,-7c-0.541199,-1.306564 -1,-3 -1,-5c0,-1 0.386871,-4.917603 3,-6c0.923874,-0.38269 3,-1 4,-1c1,0 2,0 3,0c1,0 2.292892,0.292892 3,1c0.707108,0.707108 2,1 3,2c1,1 1,2 1,4c0,1 0.38269,3.076126 0,4c-0.541199,1.306564 -3.042908,2.71022 -4,3c-3.450851,1.04483 -4,3 -6,3c-1,0 -3,1 -4,1l-1,1" id="svg_7" fill-opacity="null" stroke-opacity="null" stroke-width="1.5" stroke="#000" fill="none"/>
  <path d="m86.499758,82.499844c0,2 -0.229752,3.026749 0,4c0.513748,2.176254 1,3 2,4c1,1 2.458801,1.693436 3,3c0.765366,1.847763 -0.765366,3.152237 0,5c0.541199,1.306564 0.229752,0.973251 0,0c-0.513748,-2.176254 -4,-7 -4,-13c0,-2 0,-3 0,-4c0,-1 1,-1 2,-1c1,0 1,-1 2,-1c1,0 2,0 3,0c1,0 2.292892,0.707108 3,0c0.707108,-0.707108 0,-2 1,-3l1,0" id="svg_8" fill-opacity="null" stroke-opacity="null" stroke-width="1.5" stroke="#000" fill="none"/>
  <path d="m112.499758,78.499844c0,1 0,3 0,6c0,2 1,3 2,4l1,1l0,2" id="svg_9" fill-opacity="null" stroke-opacity="null" stroke-width="1.5" stroke="#000" fill="none"/>
  <path d="m131.499758,78.499844c0,1 -0.148041,4.228363 1,7c1.082397,2.613129 2.458801,4.693436 3,6c0.765381,1.847763 1.292908,1.292892 2,2c0.707092,0.707108 1.826904,1.852737 1,3c-1.307465,1.813995 -0.086578,-2.3806 -2,-7c-1.082397,-2.613129 -2,-5 -2,-6c0,-1 -1,-2 -1,-4c0,-1 0.292908,-1.292892 1,-2c1.414215,-1.414215 1,-2 2,-2c1,0 3,1 4,1c2,0 2.61731,0.076126 3,1c0.541199,1.306564 1.693451,2.458801 3,3c0.923889,0.38269 1.486267,0.823746 2,3c0.229767,0.973251 1,2 1,3c0,1 1,3 2,4c1,1 1.458801,2.693436 2,4c0.765381,1.847763 1.458801,1.693436 2,3c0.38269,0.923874 0,2 0,3l0,1l1,1l0,-2" id="svg_10" fill-opacity="null" stroke-opacity="null" stroke-width="1.5" stroke="#000" fill="none"/>
  <path d="m170.499758,76.499844c-1,0 -1.61731,0.076126 -2,1c-0.541199,1.306564 -2.497559,2.925797 -3,8c-0.197083,1.990265 -1,4 -1,5c0,1 0.705475,3.346191 3,5c1.813995,1.307449 3.118317,1.471863 4,1c3.178925,-1.701309 4,-7 4,-11c0,-5 0,-7 0,-8c0,-2 -0.076111,-2.61731 -1,-3c-1.306549,-0.541199 -0.691498,0.873535 0,3c1.881073,5.784607 5.080933,12.985596 7,24c1.044098,5.992493 2,12 2,16c0,7 0.38269,8.076126 0,9c-0.541199,1.306564 -3.102631,1.632462 -5,1c-4.743408,-1.581146 -5,-4 -6,-6l-1,-1l-2,-4l0,-1" id="svg_11" fill-opacity="null" stroke-opacity="null" stroke-width="1.5" stroke="#000" fill="none"/>
  <path d="m182.499758,65.499844c0,1 -0.316223,4.051315 0,5c1.581146,4.743423 4,7 6,9c1,1 0.710205,5.042908 1,6c1.04483,3.450851 2.292908,4.292892 3,5c0.707092,0.707108 2,0 3,0c1,0 2,0 3,0l0,-1l1,-1" id="svg_13" fill-opacity="null" stroke-opacity="null" stroke-width="1.5" stroke="#000" fill="none"/>
  <path d="m196.499758,75.499844c1,0 2,0 3,0c1,0 1.386871,-0.917603 4,-2c1.847748,-0.765366 2.823761,-1.486252 5,-2c1.946503,-0.459503 3.458801,-0.693436 4,-2c0.38269,-0.923874 0,-2 0,-3c0,-1 0,-2 -1,-2c-1,0 -3,-1 -4,-1c-1,0 -1.693451,-1.458801 -3,-2c-0.923889,-0.38269 -2,0 -3,0c-2,0 -3,0 -5,0c-1,0 -1,1 -1,2c0,3 -0.459503,5.053497 0,7c0.513733,2.176254 2,3 3,5c1,2 2,4 3,5c1,1 2.292908,0.292892 3,1c0.707092,0.707108 1,2 2,3l1,1" id="svg_15" fill-opacity="null" stroke-opacity="null" stroke-width="1.5" stroke="#000" fill="none"/>
  <path d="m87.499758,127.499844c0,0 -2,0 -5,0c-5,0 -7,1 -10,1c-1,0 -2,0 -2,1c0,4 -2,10 -2,12c0,2 0,3 0,4c0,2 0,5 0,6c0,1 0,2 0,4c0,1 1,2 2,2c1,0 1.85274,1.1731 3,2c1.814,1.30746 2.54915,1.95517 6,3c0.95709,0.28979 3.04132,0.84723 7,2c3.03616,0.88412 5,2 6,2c1,0 4.87856,0.49347 8,1c3.94836,0.64072 5,0 6,0c1,0 2.9176,-1.38687 4,-4c1.14804,-2.77164 -0.28979,-4.04291 0,-5c1.04483,-3.45085 2.9725,-4.64749 4,-9c0.4595,-1.9465 0,-4 0,-5c0,-1 0,-4 0,-5c0,-2 0,-3 -1,-4c-1,-1 -2,-2 -3,-2c-1,0 -3.85272,-2.1731 -5,-3c-1.814,-1.30745 -3.186,-1.69255 -5,-3c-3.4418,-2.48071 -5.0535,-3.5405 -7,-4c-2.17625,-0.51375 -3,-2 -5,-2c-1,0 -3,0 -4,0l-2,0" id="svg_16" fill-opacity="null" stroke-opacity="null" stroke-width="1.5" stroke="#000" fill="none"/>
  <path d="m76.994036,137.244046c0,0 0.263382,-0.114869 0.749985,0c0.544037,0.128433 0.749984,0.499984 1.249969,0.999969c0.25,0.25 0.749985,0.499985 0.999985,0.499985c0.249985,0 0.823196,0.176773 0.999969,0c0.176773,-0.176773 0.225525,-0.706085 -0.25,-0.99997c-0.425308,-0.262847 -0.999969,0 -1.249969,0c-0.249985,0 -0.499985,-0.25 -0.74997,-0.25c-0.25,0 -0.957092,0.542878 -0.25,1.24997c0.176774,0.176773 0.25,0.25 0.499985,0.499985c0.499985,0.5 0.42334,1.135284 0.749985,0.999984c0.230972,-0.095672 -0.423355,-0.3647 -0.749985,-0.499984c-0.230957,-0.095658 -0.506668,0.057434 -0.749985,0c-0.544052,-0.128434 -0.623336,-0.469635 -0.749969,-1.24997c-0.120132,-0.740295 -0.25,-1.249969 0.249985,-1.249969c0.25,0 0.769012,-0.095673 0.999984,0c0.326615,0.135284 0.49997,0.249984 0.74997,0.499984c0.25,0.25 0.519028,0.154313 0.749985,0.249985c0.326645,0.1353 0.499984,0.5 0,0.5c-0.249985,0 -0.249985,0.249985 -0.499985,0.249985c-0.25,0 -0.499985,0 -0.749985,0c-0.499985,0 -1.058639,0.211944 -1.249969,-0.249985c-0.1353,-0.326645 0.499984,-0.25 0.999984,-0.25c0.249985,0 0.74997,0 1.24997,0c0.249985,0 0.749969,0 0.999969,0l0,0.25" id="svg_29" fill-opacity="null" stroke-opacity="null" stroke-width="1.5" stroke="#000" fill="none"/>
  <path d="m93.743624,136.744046c0,0 -0.33873,-0.353882 -0.99997,0c-0.794708,0.425323 -0.956085,0.774459 -1.249969,1.249969c-0.262863,0.425324 0.288055,0.55864 0.749985,0.749985c0.326629,0.1353 0.573211,0.323212 0.749984,0.499985c0.176774,0.176773 0.499985,0 0.74997,0c0.25,0 0.7061,0.225525 0.999985,-0.249985c0.131439,-0.212662 0.120132,-0.509674 0,-1.24997c-0.126633,-0.780349 -0.455918,-1.371536 -0.999985,-1.499969c-0.486603,-0.114868 -0.896423,-0.353546 -1.24997,0c-0.353546,0.353546 -0.095672,0.769012 0,0.999985c0.1353,0.326629 0.878418,0.205932 0.749985,0.749969c-0.057434,0.243302 -0.558655,-0.038055 -0.749985,-0.499985c-0.135284,-0.326614 -0.749969,-0.499969 -0.749969,-0.249984c0,0.249984 0.249985,0.249984 0.249985,0.749969c0,0.25 0.455917,0.871552 0.999984,0.999985c0.243302,0.057434 0.499985,0 0.499985,-0.25l0,-0.249985" id="svg_30" fill-opacity="null" stroke-opacity="null" stroke-width="1.5" stroke="#000" fill="none"/>
  <path d="m81.493929,150.243725c0,0 -0.249985,0 -0.499985,0c-0.749984,0 -1.253723,0.061096 -1.749954,0c-1.023041,-0.125946 -1.256653,-0.192566 -1.499969,-0.25c-0.544037,-0.128433 -0.749985,-0.249985 -1.24997,-0.249985c-0.249985,0 -0.749985,0 -0.749985,0c-0.249984,0 -0.749969,0 -0.999969,0c-0.25,0 -0.423355,0.114701 -0.749985,0.249985c-0.230957,0.095658 -0.749984,0.749985 -0.749984,1.24997c0,0.499984 0,0.749984 0,0.999969c0,0.25 0.25,0.5 0.5,0.5c0.249984,0 0.519012,-0.095657 0.749969,0c0.653275,0.270584 0.396439,0.646424 0.749985,0.99997c0.353546,0.353546 0.823211,0.073227 0.999984,0.25c0.176774,0.176773 0.519013,0.095672 0.74997,0c0.326645,-0.1353 0.71962,-0.623352 1.499969,-0.749985c0.740296,-0.120133 1.21315,-0.543259 1.49997,-0.749985c0.453491,-0.326858 0.796478,-0.423126 1.249969,-0.749985c0.573624,-0.413436 0.67334,-0.614685 0.99997,-0.749969c0.230972,-0.095673 0.824661,0.262863 1.249969,0c0.475525,-0.2939 0,-0.5 -0.999969,-0.5c-1.49997,0 -3.749909,0 -5.999863,0c-0.999969,0 -1.999954,0 -2.499939,0c-0.249984,0 -0.823196,-0.176773 -0.999969,0c-0.176773,0.176773 0.46289,0.498764 2.999923,0.749985c1.99022,0.197067 3.499909,0 4.249894,0c0.25,0 0.749984,0 0.25,0c-0.25,0 -1.24997,0 -2.749939,0c-0.99997,0 -2.287995,0.05867 -2.749924,0.25c-0.32663,0.135284 -0.749985,0.249984 -0.749985,0.499984c0,0.249985 0.767929,0.422806 1.999954,0.749985c1.528122,0.405823 2.989548,0.624787 5.249863,0.74997c1.497681,0.082946 2.976868,-0.374039 3.999909,-0.499985c0.992477,-0.122177 1.36853,-0.037338 1.499954,-0.249985c0.293899,-0.475525 -0.424393,-0.863128 -1.499954,-1.499969c-1.521073,-0.900635 -4.499894,-0.499985 -5.999863,-0.499985c-0.74997,0 0,0 0.749985,0c0.25,0 4.885177,0.632187 4.499893,-0.99997c-0.114868,-0.486602 -2.119843,0.190522 -3.749909,0.99997c-1.119537,0.555923 -1.173339,0.864685 -1.499969,0.999969c-0.461929,0.19133 -0.99997,0 -1.749954,0c-0.99997,0 -2.439225,-0.246719 -3.999893,-0.499984c-0.493546,-0.080094 -0.25,0 0.499984,0c1.749954,0 3.749909,0 4.999878,0c0.249985,0 0.249985,0.25 0.249985,0.499984c0,0.25 -0.364685,0.173356 -0.499985,0.499985c-0.095672,0.230972 0.25,0.749985 0.999985,0.749985c0.499985,0 0.923325,-0.364685 1.249969,-0.499985c0.230957,-0.095672 0.499985,0 0.99997,0c0.749985,0 1.073196,0.176773 1.249969,0c0.353547,-0.353546 0,-0.999969 -0.25,-1.249969c-0.249984,-0.249985 -0.513366,-0.364853 -0.999969,-0.249985c-0.544037,0.128433 -0.926758,0.823196 -0.749985,0.999969c0.176773,0.176774 0.499985,0 0.999985,0c0.749969,0 1.506409,0.080094 1.999939,0c0.78035,-0.126632 1.61467,-0.673355 1.749954,-0.999969c0.095673,-0.230972 0.25,-0.5 0.5,-0.5c0.249985,0 0.249985,0.25 0,0.25c-0.25,0 0,0.25 0.249985,0.499985c0.25,0.25 0.269028,0.404312 0.499985,0.499984c0.326644,0.1353 0.673339,0.885285 0.999984,0.749985c0.230973,-0.095672 0.029618,-0.797561 -0.749984,-1.249969c-0.48349,-0.280579 -0.749985,-0.249985 -0.499985,-0.249985c0.499985,0 0.673355,0.1147 0.999969,0.249985c0.230973,0.095672 0.455918,0.121566 0.999985,0.25c0.486603,0.114868 0.74997,0 1.24997,0c0.999969,0 2.018966,-0.654312 2.249938,-0.749985c0.65326,-0.270584 0.769013,-0.654327 0.99997,-0.749985c0.32663,-0.135284 0.500015,-0.499985 0.999985,-0.999969c0.249984,-0.25 0.499984,-0.499985 0.749984,-0.499985c0.249985,0 0.74997,0 0.99997,0c0.25,0 0.50322,0.040039 0.749985,0c0.780349,-0.126633 0.923324,-0.3647 1.249969,-0.5c0.230957,-0.095673 0.499985,-0.249985 0.749985,-0.249985c0.249985,0 0.499985,0 0.749969,0c0.25,0 0.510727,0.072434 0.749985,0c0.862686,-0.2612 1.249985,-0.499984 1.499954,-0.499984c0.25,0 0.614685,-0.076645 0.75,0.249984c0.095673,0.230973 -0.176788,0.573212 0,0.749985c0.176789,0.176773 0.345673,0.269028 0.25,0.499985c-0.135284,0.326645 -0.972137,0.298538 -2.249954,0.999984c-0.490021,0.268998 -1.226913,0.624039 -2.249954,0.74997c-1.488724,0.183258 -2.76915,-0.067139 -3.749909,0.25c-1.28096,0.4142 -2.754791,0.651459 -3.749908,0.749985c-1.268524,0.12561 -2.378372,0.205932 -2.249939,0.749969c0.229736,0.973221 2.017899,-0.172806 3.249924,-0.499985c2.29219,-0.608718 6.291916,-1.146148 8.249801,-1.999939c1.024811,-0.446884 1.296479,-0.673141 1.749939,-0.999984c0.573639,-0.413452 0.904328,-0.269013 1,-0.499985c0.135285,-0.326645 -0.731445,-0.874359 -1.999969,-0.999969c-1.243881,-0.123169 -2.271805,-0.051514 -3.499909,0.499984c-1.019882,0.457993 -1.749954,0.749985 -2.499939,0.749985c-0.25,0 -0.749984,0.499985 -1.249969,0.749969c-0.99997,0.499985 -1.323196,0.823212 -1.49997,0.999985c-0.176773,0.176773 1.003602,-0.242065 3.749909,-1.499969c3.254242,-1.490555 5.375915,-2.258835 6.499847,-2.999924c0.590302,-0.389252 0.726563,-0.525833 0.99997,-0.749985c0.697082,-0.571457 1.749969,-0.249984 1.749969,-0.749984c0,-0.5 -1.227935,0.054229 -4.249908,1.249969c-1.986115,0.785873 -3.175537,1.640854 -4.499878,2.249954c-0.718231,0.330338 -0.749985,0.499985 -0.999985,0.499985c-0.249985,0 -0.506668,0.442551 -0.749985,0.499985c-0.544052,0.128433 -1.249969,0.25 -1.499954,0.499984c-0.25,0.25 0.043534,0.437287 1.499954,0c2.358155,-0.708038 4.225068,-2.053039 5.249878,-2.499938c1.957886,-0.853776 3.675537,-1.890824 4.999878,-2.499939c0.718201,-0.330323 0.99997,-0.499985 1.24997,-0.499985c0.25,0 0.744659,0.133316 0.25,0.749985c-0.91214,1.137069 -2.450531,1.858169 -3.999909,2.499939c-1.460754,0.605056 -2.249939,0.749984 -2.499939,0.999969c-0.25,0.25 -0.896423,0.396439 -1.249969,0.749985c-0.176773,0.176773 -0.25,0.25 0,0.25c1.249969,0 2.731384,-0.374375 3.999908,-0.499985c0.24878,-0.024628 0.769013,-0.154327 0.99997,-0.25c0.326629,-0.1353 0.538055,-0.05867 0.999969,-0.25c0.32663,-0.135284 0.823212,-0.323227 0.99997,-0.499985c0.176758,-0.176773 -1.508545,-0.283233 -3.499909,0.25c-1.758041,0.470764 -2.955871,1.371521 -3.499908,1.499954c-0.243317,0.057435 -1.057312,-0.166992 -1.999954,0.25c-0.824311,0.364655 -1.173325,0.614686 -1.499955,0.749985c-0.230972,0.095673 -0.573211,0.176773 -0.749984,0c-0.176773,-0.176773 0.996093,-0.520172 2.249939,-0.749985c1.495742,-0.274154 2.75505,-0.376266 4.249893,-0.499984c1.515472,-0.125428 2.411713,-0.418518 3.249939,-0.749985c1.414093,-0.559189 2.531708,0.268509 3.249908,-0.999969c0.123169,-0.217545 0.614685,-0.673356 0.74997,-0.999985c0.095672,-0.230957 0.364715,-0.42334 0.5,-0.749985c0.191345,-0.461929 -0.269043,-0.654297 -0.5,-0.749969c-0.32663,-0.1353 -0.519013,-0.595673 -0.74997,-0.5c-0.65329,0.270599 -0.5,0.999984 -0.5,1.499969l0,0.25l0,-0.25l-0.249969,0" id="svg_31" fill-opacity="null" stroke-opacity="null" stroke-width="1.5" stroke="#000" fill="none"/>
  <path d="m85.493838,125.74432c0.499984,-0.249984 1.873016,-0.811721 4.249893,-2.499939c1.591842,-1.13063 1.923324,-2.114654 2.249939,-2.249939c0.230972,-0.095672 0.499984,0 0.999984,0c0.74997,0 1.020035,0.327668 1.749955,0.499985c0.544052,0.128433 1.072113,0.717056 1.499954,1.749954c0.302536,0.730378 0.499985,0.749985 0.749985,0.999985c0.25,0.25 0.499984,0.74997 0.749984,1.24997l0.25,0" id="svg_32" fill-opacity="null" stroke-opacity="null" stroke-width="1.5" stroke="#000" fill="none"/>
  <path d="m79.493975,126.744305c-0.249985,0 -0.356201,-0.450333 -1.24997,-2.499939c-0.853775,-1.957886 -2.02835,-3.723022 -2.499939,-4.249908c-1.067565,-1.192749 -2.256393,-1.669876 -2.749923,-1.749955c-0.78035,-0.126632 -1.24997,-0.249984 -1.49997,-0.249984c-0.249984,0 -0.53804,-0.19133 -0.999969,0c-0.32663,0.135284 -0.23201,0.902725 -0.749985,1.499954c-0.366257,0.422302 -0.678497,0.802917 -1.249969,1.499969c-0.224152,0.273407 -0.67334,1.11467 -0.99997,1.24997c-0.230972,0.095672 -0.749985,0.499985 -0.999985,0.749985l0,0.249984l-0.249984,0.25" id="svg_33" fill-opacity="null" stroke-opacity="null" stroke-width="1.5" stroke="#000" fill="none"/>
  <path d="m83.243883,125.494336c-0.249984,0 -0.499984,0 -0.499984,-0.749985c0,-1.749954 1.654251,-3.031647 3.499908,-4.499893c1.660065,-1.320603 1.999954,-1.749955 2.249954,-1.999955c0.499985,-0.499984 2.263474,-0.358154 2.999924,-0.499984c1.32196,-0.254593 2.249939,-0.749985 3.499908,-0.749985c0.5,0 0.999985,0 1.49997,0c0.25,0 0.499985,0.499985 0.999969,0.999985l0.5,0.499984l0,0.749985l0,0.499985" id="svg_34" fill-opacity="null" stroke-opacity="null" stroke-width="1.5" stroke="#000" fill="none"/>
  <path d="m100.993456,124.494351c0,-0.249985 0.423142,-1.296463 0.749985,-1.749954c0.413421,-0.573609 1.249969,-1.24997 1.999939,-1.999955c0.999969,-0.999969 2.249939,-1.749954 2.749939,-1.749954c0.25,0 0.5,0 0.999969,0c0.99997,0 1.99997,0 3.249939,0c0.49997,0 0.99997,0 1.999939,1.24997l0.5,0.749984l0.49997,0.749985l0.25,0.249985" id="svg_35" fill-opacity="null" stroke-opacity="null" stroke-width="1.5" stroke="#000" fill="none"/>
  <path d="m84.243868,125.244336c0,0.25 -0.418854,0.236465 -0.499985,0c-0.925048,-2.696091 -2.346115,-2.705399 -3.999908,-4.999878c-0.326859,-0.453492 -0.499985,-0.499985 -0.749985,-0.499985c-0.249985,0 -1.021423,-0.144882 -1.499954,0c-1.725388,0.5224 -2.249954,1.749954 -3.249924,2.249939l-0.499984,0.499985l-0.25,0l0,0.25" id="svg_36" fill-opacity="null" stroke-opacity="null" stroke-width="1.5" stroke="#000" fill="none"/>
  <path d="m89.243746,151.743679c0,0 0.133881,-0.366104 -0.749985,-1.249969c-0.883865,-0.88385 -1.677963,-1.245361 -2.999923,-1.499954c-1.227417,-0.236374 -1.749955,0 -2.499939,0c-0.999985,0 -1.826081,0.132675 -2.749939,-0.25c-0.326615,-0.135285 -0.499985,-0.249985 -1.499955,-0.249985c-0.25,0 -1.249969,0 -1.999954,-0.25c-0.749985,-0.25 -0.999985,-0.25 -1.249969,-0.25c-0.499985,0 -0.749985,-0.249985 -0.999985,-0.249985c-0.249985,0 -0.573196,-0.426773 -0.749969,-0.25c-0.353547,0.353546 0.277069,0.812622 -0.25,2.499939c-0.333359,1.067154 -0.499985,1.49997 -0.499985,1.999954c0,0.499985 0,0.99997 0,1.24997c0,0.499985 0,0.749985 0,1.249969c0,0.249985 0.213165,0.293259 0.499985,0.499985c0.453491,0.326859 0.323211,0.573212 0.499984,0.749985c0.176773,0.176773 0.42334,0.364685 0.749985,0.499985c0.461929,0.19133 1.218353,-0.077134 1.749954,-0.25c1.446121,-0.470261 3.534287,-0.554108 5.499863,-0.99997c0.770965,-0.174881 1.499969,-0.25 2.499939,-0.749985c0.999985,-0.499984 1.976898,-1.124023 2.999924,-1.249969c0.248123,-0.030548 0.769012,-0.154312 0.999984,-0.249985c0.32663,-0.135299 0.513367,-0.385132 0.99997,-0.5c1.088104,-0.256866 1.999954,-0.999969 2.499939,-1.249954l0.25,-0.25l0.249984,0" id="svg_37" fill-opacity="null" stroke-opacity="null" stroke-width="1.5" stroke="#000" fill="none"/>
  <path d="m94.743609,163.743374c0,0 0,0 -0.499985,0c-0.25,0 -0.749985,0 -1.24997,0c-0.5,0 -1.206085,0.225525 -1.499969,-0.249969c-0.131439,-0.212647 -0.506668,-0.692566 -0.749985,-0.75c-0.544052,-0.128449 -0.898483,-0.378235 -1.499954,-0.74997c-0.672485,-0.415619 -0.999985,-0.5 -1.249969,-0.5c-0.25,0 -0.5,-0.249969 -0.749985,-0.249969c-0.25,0 -0.499985,0 -0.499985,0.249969c0,0.75 -0.25,1.49997 -0.25,1.99997c0,0.499969 -0.25,1.249969 -0.25,1.999939c0,1.249969 -0.121551,1.705902 -0.249985,2.249939c-0.057434,0.243316 -0.176757,0.823211 0,0.999969c0.176773,0.176758 0.805527,0.127808 1.499955,-0.249969c1.406143,-0.764984 2.206054,-1.024445 2.499939,-1.49997c0.131423,-0.212677 0.25,-0.25 0.999984,-0.25c0.249985,0 1.24997,-0.749969 1.499954,-0.749969c0.5,0 0.519028,-0.154328 0.749985,-0.25c0.653275,-0.2706 0.769013,-0.404328 0.999985,-0.5c0.32663,-0.135315 1.033417,-0.537201 2.249939,-0.25c0.544052,0.128448 1.324646,0.237152 1.749954,0.5c0.475525,0.293884 0.756439,0.669891 1.24997,0.749969c0.780349,0.126648 1.249969,0.75 1.749954,0.75c0.25,0 0.843017,-0.153717 1.749969,0.49997c0.286805,0.206726 0.74997,0.5 0.99997,0.5c0.25,0 0.5,0 0.5,-0.25c0,-0.25 0,-0.49997 0,-0.74997c0,-0.25 0.043274,-0.713196 0.249969,-0.999969c0.326874,-0.453491 0.25,-0.75 0.5,-1.24997c0.25,-0.5 0.323212,-0.823211 0.5,-1c0.353546,-0.353546 0,-0.999969 0,-1.249969c0,-0.24997 0,-0.49997 0,-0.99997c0,-0.249969 0,-0.499969 0,-0.749969c0,-0.25 0,-0.74997 -0.5,-0.74997c-0.25,0 -0.513366,-0.114868 -0.999969,0c-0.544068,0.128418 -1.455902,0.871521 -1.99997,0.99997c-0.486602,0.114868 -0.719604,0.373352 -1.499954,0.499969c-0.740295,0.120117 -1.006653,0.192566 -1.249969,0.25c-0.544052,0.128449 -1.323182,0.823181 -1.499955,0.99997c-0.530319,0.530334 -1.173324,0.364715 -1.499969,0.5c-0.230972,0.095672 -0.67334,0.114685 -0.99997,0.25c-0.230972,0.095672 -0.5,0 -0.999984,0l0,0.249969" id="svg_38" fill-opacity="null" stroke-opacity="null" stroke-width="1.5" stroke="#000" fill="none"/>
  <path d="m150.492251,136.744046c0,0 -0.25,0.25 -0.25,1.499969c0,1.749954 0.221069,2.747986 0,6.249848c-0.160614,2.544387 -0.625946,2.476882 -0.5,3.499908c0.061096,0.496246 0,0.749985 0,1.249969c0,0.25 0,0.749985 0,1.49997c0,0.499985 0.209961,2.007172 0.5,3.499908c0.439605,2.262528 0.623321,2.469574 0.749969,3.249939c0.120117,0.740296 -0.191345,1.038025 0,1.499939c0.2706,0.65329 0.568573,0.721222 0.75,1.24997c0.413696,1.205719 0.24997,1.499969 0.24997,1.999969l0.25,0.24997" id="svg_40" fill-opacity="null" stroke-opacity="null" stroke-width="1.5" stroke="#000" fill="none"/>
  <path d="m162.491946,147.243802c-0.25,0 -1.49997,0 -1.99997,0c-1.249969,0 -2.749908,0 -4.749878,0c-0.999969,0 -1.499939,0.249984 -2.249939,0.249984c-0.999969,0 -1.499969,0 -2.249939,0.25l-0.25,0" id="svg_41" fill-opacity="null" stroke-opacity="null" stroke-width="1.5" stroke="#000" fill="none"/>
  <path d="m162.741946,136.244061c0,0.25 0.041229,0.501694 0,0.999985c-0.125428,1.515457 -0.374756,3.238235 -0.5,5.249862c-0.108735,1.746567 -0.108735,3.253311 0,4.999878c0.125244,2.011627 0.270202,2.996048 0.5,4.249893c0.274139,1.495743 0.423095,2.296463 0.749969,2.749939c0.206726,0.286805 0.25,0.749985 0.25,0.99997c0,0.499985 -0.25,0.749985 -0.25,1.249969c0,0.25 0.229401,0.84668 0.5,1.49997c0.095673,0.230957 0.249969,0.749969 0.249969,1.249969c0,0.25 0,0.5 0.25,0.5l0,0.49997l0.25,1.249969l0,0.5" id="svg_42" fill-opacity="null" stroke-opacity="null" stroke-width="1.5" stroke="#000" fill="none"/>
  <path d="m177.991549,147.493786c-0.24997,0 -0.49997,0 -1.749939,0c-0.25,0 -1.24997,0 -1.74997,0c-0.25,0 -0.773834,0.494324 -0.999969,1.49997c-0.279663,1.243667 -0.25,2.749923 -0.25,3.999893c0,1.249969 0.028961,2.74089 0.25,3.499924c0.288208,0.989639 0.332977,2.057296 0.749969,2.999923c0.364655,0.824311 0.423371,1.114685 0.75,1.24997c0.923859,0.38266 1.759644,0.098053 2.249939,0c3.186829,-0.63736 4.205841,-1.871521 4.749878,-1.999939c0.486634,-0.114868 0.726563,-0.025849 0.99997,-0.25c0.697052,-0.571503 1.513336,-0.635132 1.999969,-0.75c0.544037,-0.128418 1.243103,-1.41182 1.49997,-2.499924c0.172302,-0.729919 0,-1.749969 0,-2.499939c0,-0.5 -0.135346,-1.175644 -0.5,-1.999954c-0.416993,-0.942627 -0.426361,-1.586517 -0.99997,-1.999954c-0.453491,-0.326859 -0.896423,0.103546 -1.249969,-0.249985c-0.176789,-0.176773 -0.220368,-0.547577 -0.99997,-0.999985c-0.48349,-0.280578 -1.249969,-0.499984 -1.749969,-0.499984c-0.25,0 -0.476959,-0.374054 -1.49997,-0.499985c-0.744354,-0.091629 -0.999969,-0.25 -1.249969,-0.25l-0.25,0l-0.24997,0l-0.25,-0.249985" id="svg_43" fill-opacity="null" stroke-opacity="null" stroke-width="1.5" stroke="#000" fill="none"/>
  <path d="m197.74106,134.494107c-0.249969,0 -0.249969,1.999954 -0.249969,5.749862c0,2.999924 -0.75,6.499833 -0.75,10.499741c0,2.999924 -0.499969,4.999878 -0.499969,5.749863c0,1.249954 0,2.749923 0,3.249923c0,0.25 0,0.74997 0.249969,0.74997c0.25,0 0.5,0 1.249969,0c0.5,0 1.74997,0 2.499939,0l1,0l0.49997,0l0.25,0" id="svg_44" fill-opacity="null" stroke-opacity="null" stroke-width="1.5" stroke="#000" fill="none"/>
  <path d="m196.491091,147.243802c0,0 -0.088379,-0.147553 0.25,-0.25c1.220032,-0.369385 2.736633,0.624664 4.499908,0.749984c0.997467,0.070893 1.726899,0.124054 2.749909,0.249985c0.744385,0.091629 1.749969,0.25 1.999969,0.25l0.74997,0l0.5,0l0.499969,0" id="svg_45" fill-opacity="null" stroke-opacity="null" stroke-width="1.5" stroke="#000" fill="none"/>
 </g>
</svg>
