<?xml version="1.0" encoding="utf-8"?>
<svg version="1.1" xmlns="http://www.w3.org/2000/svg" viewBox="0 0 140 72">
	<path fill="#CF0C11" d="M122.13,69.71l8.09,2.29V0l-7.35,2.08c-6.09,1.73-12.57,2.61-19.12,2.61H70H34.73
		c-5.54,0-11.03-0.75-16.18-2.21L9.78,0v72l10.87-3.08c3.76-1.07,7.76-1.61,11.81-1.61H70h34.54
		C110.56,67.3,116.53,68.12,122.13,69.71z"/>
	<path fill="#DF0814" d="M34.73,4.7c-5.54,0-11.03-0.75-16.18-2.21L9.78,0v72l10.87-3.08c3.76-1.07,7.76-1.61,11.81-1.61H70V4.7
		H34.73z"/>
	<path fill="#B40F0C" d="M133.5,72L133.5,72l6.33,0c0-0.92-0.3-1.79-0.85-2.44l-1.74-2.05c-0.33-0.39-0.51-0.91-0.51-1.47
		c0-0.56,0.18-1.08,0.51-1.47l1.83-2.16c1.14-1.35,1.14-3.54,0-4.88l-1.71-2.02c-0.69-0.81-0.69-2.12,0-2.93l1.73-2.05
		c1.14-1.35,1.14-3.54,0-4.88l-1.78-2.1c-0.69-0.81-0.69-2.12,0-2.93l1.84-2.17c0.58-0.68,0.86-1.57,0.86-2.46
		c0-0.89-0.28-1.78-0.86-2.46l-1.84-2.17c-0.69-0.81-0.69-2.12,0-2.93l1.78-2.1c1.14-1.35,1.14-3.54,0-4.88l-1.73-2.05
		c-0.69-0.81-0.69-2.12,0-2.93l1.71-2.02c1.14-1.35,1.14-3.54,0-4.88l-1.83-2.16c-0.33-0.39-0.51-0.91-0.51-1.47s0.18-1.08,0.51-1.47
		l1.74-2.05c0.55-0.65,0.85-1.51,0.85-2.44h-6.33h-3.28v72H133.5z"/>
	<path fill="#C60D10" d="M6.5,0L6.5,0L0.18,0c0,0.92,0.3,1.79,0.85,2.44l1.74,2.05C3.1,4.87,3.28,5.39,3.28,5.95S3.1,7.03,2.77,7.41
		L0.94,9.57c-1.14,1.35-1.14,3.54,0,4.88l1.71,2.02c0.69,0.81,0.69,2.12,0,2.93l-1.73,2.05c-1.14,1.35-1.14,3.54,0,4.88l1.78,2.1
		c0.69,0.81,0.69,2.12,0,2.93l-1.84,2.17C0.28,34.22,0,35.11,0,36c0,0.89,0.28,1.78,0.86,2.46l1.84,2.17c0.69,0.81,0.69,2.12,0,2.93
		l-1.78,2.1c-1.14,1.35-1.14,3.54,0,4.88l1.73,2.05c0.69,0.81,0.69,2.12,0,2.93l-1.71,2.02c-1.14,1.35-1.14,3.54,0,4.88l1.83,2.16
		c0.33,0.39,0.51,0.91,0.51,1.47s-0.18,1.08-0.51,1.47l-1.74,2.05C0.48,70.21,0.18,71.08,0.18,72H6.5h3.28V0H6.5z"/>
	<g>
		<path fill="#F39322" d="M121.84,69.63c-2.3-26.88-24.64-47.98-51.89-47.98c-27.26,0-49.6,21.11-51.89,48l2.59-0.74
			c3.76-1.07,7.76-1.61,11.81-1.61h12.12c3.01-11.29,13.22-19.61,25.37-19.61c12.15,0,22.36,8.32,25.37,19.61h9.22
			C110.46,67.3,116.32,68.1,121.84,69.63z"/>
		<path fill="#F5E83C" d="M115.02,68.14c-2.94-22.47-21.98-39.81-45.07-39.81c-23.02,0-42.03,17.26-45.04,39.64
			c2.47-0.43,5-0.67,7.55-0.67h12.12c3.01-11.29,13.22-19.61,25.37-19.61c12.15,0,22.36,8.32,25.37,19.61h9.22
			C108.07,67.3,111.59,67.59,115.02,68.14z"/>
		<path fill="#8DBF44" d="M108.44,67.43c-3.18-18.54-19.2-32.64-38.49-32.64c-19.26,0-35.25,14.06-38.48,32.55
			c0.33-0.01,0.66-0.03,0.99-0.03h12.12c3.01-11.29,13.22-19.61,25.37-19.61c12.15,0,22.36,8.32,25.37,19.61h9.22
			C105.85,67.3,107.15,67.35,108.44,67.43z"/>
		<path fill="#1E75BA" d="M69.95,41.01c-15.68,0-28.79,11.24-32.1,26.29h6.84c3.15-11.26,13.26-19.5,25.26-19.5
			c12,0,22.11,8.24,25.26,19.5h6.84C98.74,52.25,85.63,41.01,69.95,41.01z"/>
	</g>
	<g>
		<path fill="#E0891F" d="M115.02,68.14c2.32,0.37,4.6,0.87,6.82,1.49C119.54,42.77,97.23,21.68,70,21.65v6.68
			C93.06,28.36,112.08,45.69,115.02,68.14z"/>
		<path fill="#E3D739" d="M108.44,67.43c2.21,0.13,4.41,0.37,6.57,0.72C112.08,45.69,93.06,28.36,70,28.33v6.45
			C89.27,34.81,105.26,48.9,108.44,67.43z"/>
		<path fill="#84B23F" d="M108.44,67.43C105.26,48.9,89.27,34.81,70,34.79v6.22c15.81,0.02,28.99,11.29,32.14,26.29h2.4
			C105.85,67.3,107.15,67.35,108.44,67.43z"/>
		<path fill="#1E6DAD" d="M70,41.01v6.79c11.98,0.02,22.06,8.26,25.21,19.5h6.84C98.75,52.27,85.66,41.03,70,41.01z"/>
	</g>
	<path fill="#FFFFFF" d="M110.88,31.75h-82c-2.07,0-3.75-1.68-3.75-3.75V17.92c0-2.07,1.68-3.75,3.75-3.75h82
		c2.07,0,3.75,1.68,3.75,3.75v10.09C114.63,30.07,112.95,31.75,110.88,31.75z"/>
</svg>
