<svg xmlns="http://www.w3.org/2000/svg" viewBox="0 0 754.8652 390">
  <path fill="#e8de5b" d="M2.1216 388.8858C.7078 388.0634.46 387.1378.992 384.6662c.9995-4.6436 2.6918-7.4732 8.4726-14.1662 9.9307-11.4976 10.062-15.4016.8756-26-7.5117-8.666-9.857-13.455-9.8856-20.185-.0296-6.9974 1.1267-9.6074 7.8913-17.8106 10.641-12.905 10.787-15.1266 1.719-26.2664C1.837 270.1293.289 267.0117.289 260.5504c0-6.9344 1.7107-10.7457 8.335-18.5697 6.8877-8.1354 7.808-9.8877 7.808-14.8662 0-3.489-.8625-5.0417-6.5635-11.8157C.95 204.7008 0 202.747 0 195s.95-9.701 9.869-20.2988c5.701-6.774 6.5636-8.3266 6.5636-11.8157 0-4.9785-.9203-6.7308-7.808-14.866-6.6217-7.8213-8.335-11.6357-8.335-18.5582 0-6.47 2.1113-10.7716 9.5514-19.4613 5.6222-6.5665 7.3483-10.8488 6.2066-15.3978-.3328-1.326-3.5106-5.9677-7.062-10.3147-7.4172-9.0797-8.553-11.521-8.553-18.3847 0-6.6957 1.9703-10.9722 8.6636-18.8044 6.6062-7.73 8.7107-12.1177 7.8004-16.2624-.3572-1.6262-3.7543-6.8065-7.5492-11.5116C5.2077 14.1917 2.008 9.137 1.3487 6.6882-.423.1087.015 0 28.314 0h24.4994L80.873 7.9537c31.9698 9.062 40.2585 11.011 60.5596 14.24l14.5 2.3063h218.5c204.887 0 219.341-.1123 232-1.803 21.192-2.8305 40.5898-7.1052 67.5655-14.8894L698.933.6124l26.579-.3647c30.21-.4144 29.8723-.4943 27.9583 6.6137-.5945 2.2078-2.9836 6.357-5.309 9.2202-10.9953 13.538-11.8195 15.378-9.4363 21.0648.773 1.8445 3.943 6.323 7.0444 9.952 6.6934 7.8322 8.6637 12.1087 8.6637 18.8044 0 6.8637-1.135 9.305-8.553 18.3847-3.551 4.347-6.729 8.9887-7.062 10.3147-1.141 4.549.585 8.8313 6.207 15.3978 7.384 8.6242 9.697 13.2796 9.683 19.4902-.015 6.6617-1.887 10.7582-8.466 18.5292-6.875 8.1208-7.808 9.89-7.808 14.8128 0 3.4195.903 5.0416 6.572 11.8157 8.916 10.653 9.861 12.604 9.861 20.352 0 7.747-.95 9.701-9.869 20.298-5.701 6.774-6.563 8.326-6.563 11.815 0 4.978.921 6.731 7.808 14.866 6.579 7.771 8.451 11.867 8.466 18.529.015 6.21-2.298 10.866-9.682 19.49-8.852 10.339-8.768 14.142.557 25.223 7.261 8.628 8.852 12.003 8.852 18.776 0 6.794-1.947 11.042-8.663 18.901-3.101 3.629-6.271 8.107-7.044 9.952-2.383 5.687-1.559 7.527 9.436 21.065 4.796 5.905 7.098 12.382 5.209 14.658-.964 1.161-5.741 1.423-25.928 1.423h-24.747l-28.296-8.01c-31.66-8.963-50.046-13.039-69.965-15.511-12.19-1.513-34.159-1.698-226.5-1.903-117.15-.125-217.95.168-224 .65-16.102 1.285-31.062 4.645-68 15.274l-33 9.496-24.5-.029c-15.295-.018-25.18-.425-26.311-1.083zm603.3266-219.0523c4.1574-1.816 9.6427-7.7525 10.72-11.6018.4204-1.5024.7644-16.9067.7644-34.2317 0-30.8333-.048-31.59-2.2697-35.749-1.249-2.3368-4.141-5.4868-6.427-7l-4.158-2.751-225.073-.2944c-157.859-.2065-226.18.0254-228.778.7766-4.991 1.4426-9.689 5.5735-11.916 10.4764-1.651 3.6352-1.838 7.1174-1.858 34.6422-.015 20.8537.351 31.6835 1.15 34 1.607 4.661 4.329 8.1653 8.128 10.4636 2.91 1.7606 5.912 1.9885 33.199 2.521 16.5.322 118.425.5175 226.5.4345 174.276-.134 196.897-.325 200.015-1.687z"/>
  <path fill="#e59942" d="M1.7654 387.425c-1.16-3.0233 1.6624-9.0482 7.4772-15.961 7.0567-8.389 8.19-10.3904 8.19-14.464 0-4.0612-1.056-5.9264-8.6097-15.208-11.192-13.752-11.255-21.417-.284-34.7935 10.805-13.174 10.957-16.3558 1.325-27.7096-6.808-8.025-9.38-13.238-9.41-19.071-.031-5.979 2.11-10.476 8.613-18.094 10.695-12.529 10.775-15.602.716-27.666C2.004 205.128.432 201.857.432 195s1.572-10.129 9.352-19.459c10.059-12.0637 9.9793-15.1365-.7163-27.6656-11.885-13.9216-11.702-22.432.796-37.1646 9.6366-11.359 9.466-14.894-1.3415-27.765-11.277-13.431-10.849-22.074 1.8234-36.82 5.884-6.847 7.086-9.0736 7.086-13.125 0-4.0738-1.133-6.075-8.19-14.464C3.428 11.6236.6054 5.5986 1.7654 2.575 2.2944 1.197 5.656 1 28.6524 1H54.935l20.999 6.0382c41.088 11.8147 60.756 15.8444 87.4488 17.9173 17.9863 1.3968 403.2983 1.43 422.05.0363 30.6268-2.276 51.932-6.2523 88.468-16.5107L700.5456 1h52.887v2.532c0 4.13-2.3704 8.6112-8.192 15.4873-6.6508 7.8555-7.808 9.9277-7.808 13.9807 0 4.0972 1.166 6.1923 7.7923 14 12.068 14.2207 12.316 22.3263 1.1 36.0015-10.743 13.099-10.913 15.877-1.655 27.1575 7.18 8.749 9.71 13.8473 9.74 19.623.03 5.9788-2.11 10.4753-8.614 18.0937-10.691 12.5234-10.77 15.5677-.721 27.607 7.76 9.2974 9.356 12.6258 9.356 19.5173 0 6.8573-1.572 10.1286-9.352 19.4586-6.656 7.9823-8.506 12.2637-7.149 16.541.379 1.1954 3.602 5.7516 7.161 10.1247 7.419 9.1154 9.347 13.0662 9.316 19.0936-.03 5.775-2.56 10.874-9.74 19.623-9.258 11.28-9.088 14.058 1.655 27.157 11.216 13.675 10.968 21.781-1.101 36.001-6.627 7.807-7.793 9.902-7.793 14 0 4.053 1.157 6.125 7.808 13.98 5.822 6.876 8.192 11.357 8.192 15.487V389l-26.75-.021-26.75-.021-22-6.5107c-31.654-9.3678-31.787-9.404-45.464-12.309L620 367.4908l-.717-3.4958c-6.233-30.3857-9.904-43.0118-18.026-61.9958-12.2-28.516-29.673-54.0083-52.777-77-18.5795-18.4894-37.892-32.5604-60.6027-44.1558-6.834-3.4893-12.4315-6.6817-12.438-7.0942-.007-.4125 13.151-.7974 29.238-.8554 16.0874-.058 45.0746-.3954 64.416-.75l35.166-.6446 4.334-3.0134c2.532-1.7605 5.27-4.863 6.584-7.462 2.193-4.3357 2.25-5.2543 2.25-36.2763 0-29.356-.1483-32.116-1.9085-35.538-2.3277-4.5253-6.6294-8.7195-10.4067-10.1467-1.959-.74-71.596-1.0636-228.912-1.0636H150.108l-4.3113 2.5266c-2.552 1.4952-5.3587 4.313-6.876 6.903l-2.565 4.3764.288 34.0057.288 34.005 3.051 3.841c1.6783 2.112 5.0533 4.824 7.5 6.025 4.3737 2.146 5.5248 2.197 67.949 3l63.5.816-8.2962 4.284c-26.2056 13.533-45.9768 27.857-65.769 47.65-35.949 35.949-59.329 80.077-68.407 129.114l-2.2303 12.049-12.0862 2.805c-6.648 1.542-15.265 3.898-19.149 5.235-3.885 1.337-16.393 5.115-27.797 8.396l-20.735 5.965H28.416c-22.782 0-26.1225-.197-26.6512-1.575zm186.1907-24.1578c-8.787-.1762-16.319-.663-16.738-1.0818-.419-.419.33-5.2444 1.663-10.7235 6.894-28.331 20.018-56.229 37.286-79.258 7.382-9.845 25.601-28.698 35.267-36.493 31.529-25.428 69.505-41.224 110-45.752 15.349-1.717 40.602-1.545 52.665.358 85.41 13.473 153.447 76.143 173.9 160.181 1.339 5.5 2.435 10.754 2.435 11.676.001 1.562-12.878 1.667-190.248 1.543-104.637-.073-197.439-.277-206.226-.453z"/>
  <path fill="#d48e3b" d="M2.585 387.6836c-1.9292-2.3245.5115-7.8295 6.9544-15.685 11.1207-13.559 11.2038-16.55.8092-29.1-7.937-9.5826-9.304-12.8595-8.7217-20.9078.363-5.024 1.011-6.5574 4.862-11.4965 9.504-12.191 10.943-14.608 10.943-18.381 0-4.0306-1.086-5.9387-8.032-14.1133-11.29-13.2865-11.415-21.4758-.533-34.8475 7.752-9.5252 8.564-11.0457 8.564-16.0268 0-3.4924-.963-5.1988-7.511-13.3157-12.124-15.028-12.596-22.7137-2.155-35.1222 9.264-11.0095 9.665-11.6823 9.665-16.2135 0-4.4702-1.697-7.3908-10.663-18.3463-6.258-7.6466-7.462-16.3345-3.347-24.1515.717-1.362 3.417-4.9515 6-7.9765 7.446-8.719 8.328-10.4672 7.773-15.3958-.398-3.525-1.771-5.9294-7.196-12.5938-7.702-9.462-8.569-11.2947-8.569-18.1076 0-6.7766 1.619-10.1516 9.271-19.318 10.002-11.9823 9.874-15.125-1.164-28.5833C3.096 10.146.656 4.641 2.585 2.3165 3.4335 1.294 9.1023 1 27.97 1h24.2923l24.3352 6.922c39.2982 11.178 48.5938 13.2788 74.335 16.7998 12.1715 1.665 26.289 1.7603 221.5 1.4972 130.472-.1758 212.991-.662 220.5-1.2994 27.4583-2.3304 47.287-6.2867 84.9947-16.9582L702.5252 1h24.9852c20.9724 0 25.075.2343 25.5448 1.4588 1.089 2.838-1.9038 8.7803-8.2415 16.364-10.181 12.183-10.261 16.1935-.5534 27.7342 3.2122 3.8186 6.4354 8.0574 7.1627 9.4195 4.1416 7.7562 2.9375 16.4956-3.3277 24.1515-9.598 11.7286-10.898 14.055-10.389 18.59.38 3.3846 1.8634 5.926 7.51 12.8644 7.6053 9.3454 9.7914 14.7348 8.6148 21.238-.948 5.2414-2.41 7.7552-9.287 15.966-9.553 11.4062-9.561 15.437-.051 26.525 7.273 8.4794 9.889 13.615 9.919 19.4707.032 6.108-2.041 10.302-9.519 19.268-9.92 11.894-9.975 15.56-.408 27.011 9.252 11.073 10.95 15.602 8.961 23.895-.864 3.605-2.963 7.031-8.088 13.206-6.937 8.358-8.737 12.456-7.55 17.186.326 1.298 3.707 6.222 7.513 10.941 7.524 9.329 9.713 15.129 8.215 21.771-1.12 4.969-2.663 7.529-9.272 15.385-9.706 11.54-9.635 15.162.543 27.621 6.416 7.853 9.329 13.671 8.252 16.477-.47 1.225-4.582 1.459-25.625 1.459h-25.066l-22.289-6.382c-12.259-3.51-23.606-7.058-25.216-7.883-2.602-1.334-19.438-5.403-29.73-7.186-2.091-.362-3.955-1.196-4.141-1.853-.186-.657-1.338-6.595-2.56-13.195-13.569-73.316-62.889-138.692-130.996-173.638l-8.5-4.361 33-.731c93.237-2.065 92.627-2.036 96.759-4.606 2.068-1.285 4.993-4.435 6.5-7l2.741-4.663.33-29.5c.223-19.927-.048-31.224-.835-34.813-1.386-6.317-5.695-11.691-11.485-14.322-3.839-1.744-13.558-1.822-229.601-1.843L150.747 77l-4.4073 2.3267c-2.424 1.2798-5.7574 4.2427-7.4074 6.5843l-3 4.2574-.2903 32.6658c-.2504 28.1684-.0674 33.2494 1.3286 36.9052 2.0315 5.3197 8.2247 10.7117 13.963 12.1566 2.6708.6725 15.154 1.104 31.9414 1.104 15.3728 0 27.5572.3923 27.5572.8873 0 .488-3.2625 3.5165-7.25 6.73-56.4642 45.503-93.7336 112.2215-102.835 184.0913-.7734 6.1082-1.713 9.679-2.7905 10.606-.8934.7687-11.5244 4.1626-23.6244 7.5422l-22 6.1446-24.1276-.0007c-18.7306-.0005-24.372-.295-25.22-1.317zm185.371-24.46c-8.787-.1522-16.3192-.6194-16.738-1.0382-.419-.419.3292-5.2444 1.6624-10.7235 6.8935-28.331 20.0178-56.229 37.2858-79.258 7.3816-9.845 25.601-28.698 35.2664-36.493 31.5284-25.428 69.505-41.224 110-45.752 15.3483-1.717 40.6018-1.545 52.6644.358 85.41 13.473 153.4466 76.143 173.8993 160.181 1.3385 5.5 2.4343 10.675 2.435 11.5.001 1.328-21.8036 1.5-190.2487 1.5-104.6375 0-197.4394-.125-206.2265-.277z"/>
  <path fill="#92b653" d="M2.4326 385.9602c0-2.9562 3.2148-8.7905 7.6922-13.9602 7.621-8.7995 8.3078-10.032 8.3078-14.9123 0-5.1226-.601-6.201-9.1305-16.387-7.966-9.513-9.601-17.3763-5.347-25.7106.705-1.38 4.004-5.76 7.331-9.733 9.471-11.307 9.25-15.012-1.674-28.058-11.166-13.335-10.945-21.094 1.003-35.206 6.749-7.971 7.818-9.925 7.818-14.287 0-3.712-2.736-8.347-9.272-15.705-10.256-11.546-10.256-22.453 0-34 6.536-7.357 9.272-11.993 9.272-15.705 0-4.361-1.069-6.316-7.818-14.287-11.943-14.107-12.165-22.004-.993-35.28 11.088-13.176 11.176-16.307.819-29.149C2.232 73.403.655 69.053 2.379 61.349c.869-3.883 2.5746-6.8568 6.886-12.0053 8.6034-10.274 9.1676-11.292 9.1676-16.5363 0-4.3624-.5328-5.402-6.5668-12.8153C5.557 12.242 2.4326 6.79 2.4326 3.533 2.4326 2.1958 5.7144 2 28.123 2h25.6904L81.873 9.9408c29.025 8.214 44.8133 11.823 64.5596 14.758 10.498 1.56 29.577 1.7403 219 2.068 145.479.2517 211.834.028 222-.748 30.1918-2.3046 51.3357-6.3483 89.1344-17.0465L701.2014 2h25.6156c25.1157 0 25.6156.0398 25.6156 2.0398 0 2.9562-3.2147 8.7905-7.692 13.9602-7.674 8.8603-8.308 10.011-8.308 15.075 0 4.488.496 5.4195 7.515 14.115 8.0546 9.9786 10.078 14.7006 9.051 21.123-.856 5.3536-2.4058 8.0568-9.419 16.4304-9.467 11.303-9.246 15.0197 1.6643 27.9844 11.344 13.4812 11.006 20.9903-1.626 36.0692-6.197 7.3967-8.004 11.8083-6.801 16.6008.333 1.326 3.474 5.9415 6.981 10.2566 8.101 9.9696 9.634 13.0473 9.634 19.3456 0 6.2983-1.533 9.376-9.635 19.3456-3.507 4.315-6.648 8.9306-6.981 10.2566-1.247 4.968.596 9.2423 7.508 17.4125 11.919 14.089 12.124 21.9412.918 35.2575-10.911 12.9647-11.132 16.6813-1.665 27.9844 6.906 8.2454 8.397 10.7993 9.386 16.068 1.122 5.9816-1.149 11.9074-7.445 19.4264-8.483 10.1307-9.088 11.2184-9.088 16.3367 0 4.8802.686 6.1128 8.308 14.9123 4.477 5.1697 7.692 11.004 7.692 13.9602 0 1.9997-.501 2.0398-25.482 2.0398h-25.482l-19.768-5.5453c-25.219-7.0744-25.268-7.0942-25.268-10.1977 0-8.6695-5.231-35.07-10.652-53.757-14.772-50.9253-48.133-101.4697-89.599-135.7518-5.363-4.4334-9.75-8.4404-9.75-8.9045 0-.464 12.511-.8437 27.803-.8437 27.749 0 27.813-.005 32.887-2.533 3.174-1.582 6.158-4.084 7.946-6.6628l2.863-4.1296.288-33.8032c.274-32.189.191-33.9912-1.721-37.7406-2.623-5.1407-8.229-9.6823-13.631-11.0425-6.176-1.555-447.316-1.5257-452.937.0302-5.504 1.5237-12.938 9.081-14.448 14.6872-.794 2.9466-1.063 13.9735-.856 34.9982.302 30.625.308 30.706 2.803 35.151 1.375 2.45 4.45 5.825 6.834 7.5l4.334 3.045 28.666.269c15.766.148 29.252.48 29.968.738.759.273-2.577 3.656-8 8.112-5.116 4.203-14.702 13.131-21.302 19.84-43.384 44.099-70.316 99.188-78.962 161.517-.876 6.312-1.961 11.845-2.411 12.295-.45.45-10.331 3.498-21.958 6.773L53.463 388H27.948c-25.0148 0-25.5154-.04-25.5154-2.0398zm185.5235-22.7094c-8.787-.167-16.319-.6466-16.738-1.0654-.419-.419.33-5.2444 1.663-10.7235 6.894-28.331 20.018-56.229 37.286-79.258 7.382-9.845 25.601-28.698 35.267-36.493 31.529-25.428 69.505-41.224 110-45.752 15.349-1.717 40.602-1.545 52.665.358 85.41 13.473 153.447 76.143 173.9 160.181 1.339 5.5 2.435 10.695 2.435 11.546.001 1.362-4.275 1.569-35.998 1.742-19.8.108-36-.138-36-.546s-60.975-.743-135.5-.743-135.5.337-135.5.75c0 .705-16.433.705-53.476.001z"/>
  <path fill="#386eac" d="M2.4326 385.9602c0-2.9562 3.2148-8.7905 7.6922-13.9602 7.621-8.7995 8.3078-10.032 8.3078-14.9123 0-5.1226-.601-6.201-9.1305-16.387-7.966-9.513-9.601-17.3763-5.347-25.7106.705-1.38 4.004-5.76 7.331-9.733 9.471-11.307 9.25-15.012-1.674-28.058-11.166-13.335-10.945-21.094 1.003-35.206 6.749-7.971 7.818-9.925 7.818-14.287 0-3.712-2.736-8.347-9.272-15.705-10.256-11.546-10.256-22.453 0-34 6.536-7.357 9.272-11.993 9.272-15.705 0-4.361-1.069-6.316-7.818-14.287-11.943-14.107-12.165-22.004-.993-35.28 11.088-13.176 11.176-16.307.819-29.149C2.232 73.403.655 69.053 2.379 61.349c.869-3.883 2.5746-6.8568 6.886-12.0053 8.6034-10.274 9.1676-11.292 9.1676-16.5363 0-4.3624-.5328-5.402-6.5668-12.8153C5.557 12.242 2.4326 6.79 2.4326 3.533 2.4326 2.1958 5.7144 2 28.123 2h25.6904L81.873 9.9408c29.025 8.214 44.8133 11.823 64.5596 14.758 10.498 1.56 29.577 1.7403 219 2.068 145.479.2517 211.834.028 222-.748 30.1918-2.3046 51.3357-6.3483 89.1344-17.0465L701.2014 2h25.6156c25.1157 0 25.6156.0398 25.6156 2.0398 0 2.9562-3.2147 8.7905-7.692 13.9602-7.674 8.8603-8.308 10.011-8.308 15.075 0 4.488.496 5.4195 7.515 14.115 8.0546 9.9786 10.078 14.7006 9.051 21.123-.856 5.3536-2.4058 8.0568-9.419 16.4304-9.467 11.303-9.246 15.0197 1.6643 27.9844 11.344 13.4812 11.006 20.9903-1.626 36.0692-6.197 7.3967-8.004 11.8083-6.801 16.6008.333 1.326 3.474 5.9415 6.981 10.2566 8.101 9.9696 9.634 13.0473 9.634 19.3456 0 6.2983-1.533 9.376-9.635 19.3456-3.507 4.315-6.648 8.9306-6.981 10.2566-1.247 4.968.596 9.2423 7.508 17.4125 11.919 14.089 12.124 21.9412.918 35.2575-10.911 12.9647-11.132 16.6813-1.665 27.9844 6.906 8.2454 8.397 10.7993 9.386 16.068 1.122 5.9816-1.149 11.9074-7.445 19.4264-8.483 10.1307-9.088 11.2184-9.088 16.3367 0 4.8802.686 6.1128 8.308 14.9123 4.477 5.1697 7.692 11.004 7.692 13.9602 0 1.9997-.501 2.0398-25.482 2.0398h-25.482l-19.768-5.5453c-25.219-7.0744-25.268-7.0942-25.268-10.1977 0-8.6695-5.231-35.07-10.652-53.757-14.772-50.9253-48.133-101.4697-89.599-135.7518-5.363-4.4334-9.75-8.4404-9.75-8.9045 0-.464 12.511-.8437 27.803-.8437 27.749 0 27.813-.005 32.887-2.533 3.174-1.582 6.158-4.084 7.946-6.6628l2.863-4.1296.288-33.8032c.274-32.189.191-33.9912-1.721-37.7406-2.623-5.1407-8.229-9.6823-13.631-11.0425-6.176-1.555-447.316-1.5257-452.937.0302-5.504 1.5237-12.938 9.081-14.448 14.6872-.794 2.9466-1.063 13.9735-.856 34.9982.302 30.625.308 30.706 2.803 35.151 1.375 2.45 4.45 5.825 6.834 7.5l4.334 3.045 28.666.269c15.766.148 29.252.48 29.968.738.759.273-2.577 3.656-8 8.112-5.116 4.203-14.702 13.131-21.302 19.84-43.384 44.099-70.316 99.188-78.962 161.517-.876 6.312-1.961 11.845-2.411 12.295-.45.45-10.331 3.498-21.958 6.773L53.463 388H27.948c-25.0148 0-25.5154-.04-25.5154-2.0398zm203.339-23.021c-.8638-.864-.581-3.2086 1.1436-9.4768 15.5808-56.631 58.564-102.7862 113.5446-121.9237 34.8674-12.1366 74.5332-12.6193 109.9728-1.3385C475.67 244.6 514.5048 278.5876 535.8952 322.5c5.7623 11.8294 12.2362 30.0232 13.2092 37.1222l.6 4.3778h-17.9692c-9.883 0-18.1975-.2283-18.4765-.5073-.548-.548-261.2692-.325-289.3325.2475-11.8872.2425-17.352.001-18.1545-.801z"/>
  <path fill="#cc2d25" d="M2.4326 385.9602c0-2.9562 3.2148-8.7905 7.6922-13.9602 7.621-8.7995 8.3078-10.032 8.3078-14.9123 0-5.1226-.601-6.201-9.1305-16.387-7.966-9.513-9.601-17.3763-5.347-25.7106.705-1.38 4.004-5.76 7.331-9.733 9.471-11.307 9.25-15.012-1.674-28.058-11.166-13.335-10.945-21.094 1.003-35.206 6.749-7.971 7.818-9.925 7.818-14.287 0-3.712-2.736-8.347-9.272-15.705-10.256-11.546-10.256-22.453 0-34 6.536-7.357 9.272-11.993 9.272-15.705 0-4.361-1.069-6.316-7.818-14.287-11.943-14.107-12.165-22.004-.993-35.28 11.088-13.176 11.176-16.307.819-29.149C2.232 73.403.655 69.053 2.379 61.349c.869-3.883 2.5746-6.8568 6.886-12.0053 8.6034-10.274 9.1676-11.292 9.1676-16.5363 0-4.3624-.5328-5.402-6.5668-12.8153C5.557 12.242 2.4326 6.79 2.4326 3.533 2.4326 2.1958 5.7144 2 28.123 2h25.6904L81.873 9.9408c29.025 8.214 44.8133 11.823 64.5596 14.758 10.498 1.56 29.577 1.7403 219 2.068 145.479.2517 211.834.028 222-.748 30.1918-2.3046 51.3357-6.3483 89.1344-17.0465L701.2014 2h25.6156c25.1157 0 25.6156.0398 25.6156 2.0398 0 2.9562-3.2147 8.7905-7.692 13.9602-7.674 8.8603-8.308 10.011-8.308 15.075 0 4.488.496 5.4195 7.515 14.115 8.0546 9.9786 10.078 14.7006 9.051 21.123-.856 5.3536-2.4058 8.0568-9.419 16.4304-9.467 11.303-9.246 15.0197 1.6643 27.9844 11.344 13.4812 11.006 20.9903-1.626 36.0692-6.197 7.3967-8.004 11.8083-6.801 16.6008.333 1.326 3.474 5.9415 6.981 10.2566 8.101 9.9696 9.634 13.0473 9.634 19.3456 0 6.2983-1.533 9.376-9.635 19.3456-3.507 4.315-6.648 8.9306-6.981 10.2566-1.247 4.968.596 9.2423 7.508 17.4125 11.919 14.089 12.124 21.9412.918 35.2575-10.911 12.9647-11.132 16.6813-1.665 27.9844 6.906 8.2454 8.397 10.7993 9.386 16.068 1.122 5.9816-1.149 11.9074-7.445 19.4264-8.483 10.1307-9.088 11.2184-9.088 16.3367 0 4.8802.686 6.1128 8.308 14.9123 4.477 5.1697 7.692 11.004 7.692 13.9602 0 1.9997-.501 2.0398-25.482 2.0398h-25.482l-19.768-5.5453c-25.219-7.0744-25.268-7.0942-25.268-10.1977 0-8.6695-5.231-35.07-10.652-53.757-14.772-50.9253-48.133-101.4697-89.599-135.7518-5.363-4.4334-9.75-8.4404-9.75-8.9045 0-.464 12.511-.8437 27.803-.8437 27.749 0 27.813-.005 32.887-2.533 3.174-1.582 6.158-4.084 7.946-6.6628l2.863-4.1296.288-33.8032c.274-32.189.191-33.9912-1.721-37.7406-2.623-5.1407-8.229-9.6823-13.631-11.0425-6.176-1.555-447.316-1.5257-452.937.0302-5.504 1.5237-12.938 9.081-14.448 14.6872-.794 2.9466-1.063 13.9735-.856 34.9982.302 30.625.308 30.706 2.803 35.151 1.375 2.45 4.45 5.825 6.834 7.5l4.334 3.045 28.666.269c15.766.148 29.252.48 29.968.738.759.273-2.577 3.656-8 8.112-5.116 4.203-14.702 13.131-21.302 19.84-43.384 44.099-70.316 99.188-78.962 161.517-.876 6.312-1.961 11.845-2.411 12.295-.45.45-10.331 3.498-21.958 6.773L53.463 388H27.948c-25.0148 0-25.5154-.04-25.5154-2.0398zm239.7534-23.54c-.912-.912 3.8618-14.036 8.701-23.9202 20.3674-41.6015 59.2248-70.6955 104.3088-78.1 12.935-2.1243 38.964-1.3874 51.2368 1.4506 36.7307 8.494 68.7756 30.8432 88.6473 61.826 7.396 11.5315 18.178 36.178 16.801 38.4057-.616.996-268.702 1.3317-269.696.3378z"/>
  <path fill="#b7291f" d="M701.4326 387.122c-.825-.4495-10.7738-3.4296-22.1085-6.6224l-20.608-5.8052-1.172-9.5972c-5.838-47.795-25.581-96.732-54.569-135.2653-11.668-15.511-25.175-30.368-37.283-41.012-5.831-5.126-11.987-10.545-13.68-12.041l-3.077-2.721 26.782-.03c29.133-.032 31.309-.375 37.06-5.833 1.563-1.484 3.812-4.497 4.997-6.697 2.038-3.782 2.173-5.559 2.487-32.598.205-17.679-.08-30.851-.748-34.5-1.345-7.35-5.249-13.108-11.121-16.403l-4.455-2.5-112.75-.267-112.75-.267V28.099l107.75-.3684c103.838-.355 108.295-.4467 122.75-2.5168 25.303-3.6234 42.315-7.5372 74-17.024l19-5.689 24.416-.2853c13.428-.157 24.782.081 25.23.529 1.758 1.7578-1.418 8.135-8.019 16.1033-10.321 12.4592-10.368 15.92-.38 27.8648 7.674 9.1765 9.253 12.47 9.253 19.2944 0 6.2102-2.062 10.344-9.445 18.935-8.798 10.2377-8.693 15.12.563 26.1984 6.785 8.121 7.884 9.931 8.982 14.8 1.492 6.6122-.694 12.482-7.772 20.876-7.182 8.518-8.327 10.691-8.327 15.813 0 4.4616.53 5.3962 8.465 14.94 11.512 13.8466 11.512 21.0114 0 34.858-7.935 9.544-8.465 10.4785-8.465 14.94 0 5.1166 1.145 7.296 8.272 15.747 6.909 8.192 9.235 13.966 8.078 20.0468-.941 4.9467-2.597 7.755-9.299 15.777-9.458 11.3197-9.465 15.2567-.053 26.6357 7.842 9.48 8.989 11.802 8.997 18.206.008 6.933-1.516 10.137-9.318 19.585-9.938 12.034-9.776 15.689 1.2776 28.82 5.593 6.644 8.717 12.92 7.451 14.969-.6695 1.083-48.411 1.051-50.4033-.034zM3.4388 385.25c.01-2.7722 2.4526-6.7632 8.9413-14.6077 9.641-11.6547 9.492-16.0392-.972-28.6712-12.068-14.568-12.045-20.957.13-35.676 9.86-11.92 9.839-16.24-.141-28.095-6.903-8.2-8.964-12.384-8.964-18.199 0-5.749 1.865-9.395 9.363-18.311 10.007-11.898 9.953-16.108-.362-28.188-7.42-8.691-9.001-11.927-9.001-18.433 0-6.768 1.632-10.167 8.911-18.566 10.415-12.017 10.483-16.261.452-28.188-7.498-8.916-9.363-12.562-9.363-18.311 0-5.815 2.061-9.999 8.964-18.199 6.608-7.85 8.531-12.593 7.111-17.541-.494-1.722-3.84-6.746-7.436-11.164-7.364-9.047-9.223-13.701-8.2-20.524.678-4.522 1.716-6.12 13.304-20.492 2.288-2.837 2.759-4.394 2.759-9.11 0-5.509-.198-5.928-6.292-13.295C5.905 11.529 3.449 7.546 3.439 4.75 3.4328 3.1298 5.2874 3 28.4326 3h25v384h-25c-23.1452 0-24.9995-.1298-24.9938-1.75zm240.5774-30.5c16.659-49.0078 60.2282-85.9818 111.1796-94.35 12.935-2.1243 38.964-1.3874 51.2368 1.4506 31.607 7.309 59.444 24.5276 79.1095 48.933 7.823 9.7085 11.705 15.7575 17.259 26.893 3.624 7.266 9.632 22.1633 9.632 23.883 0 .2422-30.146.4404-66.991.4404h-66.991l-.259-50.75-.259-50.75-9.385.1978c-16.27.343-37.169 5.772-53.099 13.7945-32.058 16.1442-60.243 48.794-70.578 81.7577-.991 3.1625-2.143 5.75-2.56 5.75-.417 0 .351-3.2625 1.707-7.25z"/>
</svg>
