<?xml version="1.0" encoding="utf-8"?>
<svg version="1.1" xmlns="http://www.w3.org/2000/svg" viewBox="0 0 140 140">
  <rect x="22" y="4" width="96" height="132" fill="#e0e0e0" />
  <rect x="22" y="4" width="48" height="132" fill="#ececec" />
  <rect x="114" y="4" width="4" height="132" fill="#d1d1d1" />
  <rect x="22" y="4" width="4" height="132" fill="#e0e0e0" />
  <circle cx="70" cy="78" r="17" fill="#bf1d7e" />
  <path d="M53,78A17,17,0,0,0,70,95V61A17,17,0,0,0,53,78Z" fill="#d31b76" />
  <rect x="26" y="104" width="88" height="32" fill="#1e1e1e" />
  <rect x="26" y="104" width="44" height="32" fill="#282828" />
  <path d="M87.69,38H81V33a1,1,0,0,0-1-1H60a1,1,0,0,0-1,1v5H52.31A1.32,1.32,0,0,0,51,39.31v7.37A1.32,1.32,0,0,0,52.31,48H55v6.83A1.17,1.17,0,0,0,56.17,56H83.83A1.17,1.17,0,0,0,85,54.83V48h2.69A1.32,1.32,0,0,0,89,46.69V39.31A1.32,1.32,0,0,0,87.69,38Z" fill="#9e5600" />
  <path d="M70,32H60a1,1,0,0,0-1,1v5H52.31A1.32,1.32,0,0,0,51,39.31v7.37A1.32,1.32,0,0,0,52.31,48H55v6.83A1.17,1.17,0,0,0,56.17,56H70Z" fill="#a96300" />
</svg>
