<svg xmlns="http://www.w3.org/2000/svg" viewBox="2058 -459 114 140"><defs><style>.cls-1 { fill: #75bb58; } .cls-2 { fill: #68a74e; } .cls-3 { fill: #5a874d; } .cls-4 { fill: #507844; } .cls-5 { fill: #5a376b; } .cls-6 { fill: #50315f; } .cls-7 { fill: #e4e4e4; } .cls-8 { fill: #f9f9a8; } .cls-9 { fill: #dede96; }</style></defs><g id="snackajacks"><g id="Group_102" data-name="Group 102"><g id="Group_101" data-name="Group 101"><g id="Group_100" data-name="Group 100"><g id="Group_99" data-name="Group 99"><g id="Group_98" data-name="Group 98"><path id="Path_400" d="M110.6,23.1l3.4-8.6H0l3.1,7.8A54.805,54.805,0,0,1,7,42.7V98.9a46.66,46.66,0,0,1-3.3,17.3L0,125.6H114L109.4,114a33.993,33.993,0,0,1-2.4-12.6V41.9A50.285,50.285,0,0,1,110.6,23.1Z" data-name="Path 400" class="cls-1" transform="translate(2058 -459)"/><path id="Path_401" d="M321.075,23.1l3.4-8.6H267.009l.078,111.1h57.388l-4.6-11.6a33.994,33.994,0,0,1-2.4-12.6V41.9A50.285,50.285,0,0,1,321.075,23.1Z" data-name="Path 401" class="cls-2" transform="translate(1847.525 -459)"/><path id="Rectangle_170" d="M0 0H114V14.4H0z" data-name="Rectangle 170" class="cls-3" transform="translate(2058 -333.4)"/><path id="Rectangle_171" d="M0 0H57.044V14.4H0z" data-name="Rectangle 171" class="cls-4" transform="translate(2114.956 -333.4)"/><path id="Rectangle_172" d="M0 0H114V14.4H0z" data-name="Rectangle 172" class="cls-3" transform="translate(2058 -459)"/><path id="Rectangle_173" d="M0 0H57.044V14.4H0z" data-name="Rectangle 173" class="cls-4" transform="translate(2114.956 -459)"/><path id="Path_402" d="M27.521,0c15.2,0,27.521,11.4,27.521,25.46S42.72,50.92,27.521,50.92c-4.756,0-21.747,1.715-25.73-.294-2.867-1.446,7.03-6.243,4.847-8.582A24.244,24.244,0,0,1,0,25.46C0,11.4,12.321,0,27.521,0Z" data-name="Path 402" class="cls-5" transform="rotate(-18.01 -325.565 -6728.193)"/><path id="Path_403" d="M12.871,0a23.981,23.981,0,0,1,4.6,14.1c0,10.771-7.23,19.98-17.472,23.71C3.469,27.131,7,18.076,12.871,0Z" data-name="Path 403" class="cls-6" transform="rotate(-18.01 -308.46 -6852.474)"/><path id="Path_404" d="M3.052,2.239S4.215.074,10.575.074,22.512-.346,27.06.817s6.348,4.151,6.348,7.411V14.35c0,3.26-1.882,5.624-6.127,7.1s-15.164,1.574-20.3.03C4.408,21.414,0,17.2,0,13.94c0,0,.556-4.6.556-5.4C.556,5.283,3.052,2.239,3.052,2.239Z" data-name="Path 404" class="cls-7" transform="rotate(-14.984 -562.407 -8092.72)"/></g></g></g><path id="Path_405" d="M-252.761-474.516c-1.294-.207-2.664,2.519-3.051,1.766a88.828,88.828,0,0,0,2.2-11.185v-20.853s2.065,3.395,3.529,3.327a39.541,39.541,0,0,1,7.694,0c4.394,1.444,3.727.911,8.019,3.771s12.153,2.46,13.858,2.035c5.106-1.273,10.506,2.754,12.062,8.994s-3.993,11.2-9.1,12.469c-3.99.995-10.446-1.83-12.151-1.405-8,0-10.136,2.574-16.659,2.541C-252.455-473.554-251.234-474.271-252.761-474.516Z" data-name="Path 405" class="cls-8" transform="translate(2318.518 127.21)"/><path id="Path_406" d="M-248.508-461.883c-3.092-1.911-4-4.464-4.864-6.826-1.138-3.106-1.769-7.417,0-10.885,3.055-5.989,5.469-7.8,11.379-7.8,6.108,1.6,6.216,3.414,6.216,3.414v13.407a15.3,15.3,0,0,0,0,1.86c.141,1.188.524,2.294.691,3.223a22.676,22.676,0,0,0,.868,3.6A20.74,20.74,0,0,1-248.508-461.883Z" data-name="Path 406" class="cls-9" transform="translate(2401.013 115.402)"/><path id="Path_407" d="M27.623,0c8.5,0,14.118,5.306,14.118,11.852,0,4.457-3.891,7.9-8.664,9.947-2.162.927,4.678,4.236,1.967,4.236-8.5,0-19.523-7.637-19.523-14.182S19.124,0,27.623,0Z" data-name="Path 407" class="cls-4" transform="translate(2110.69 -402.04)"/></g></g></g></svg>