<svg xmlns="http://www.w3.org/2000/svg" viewBox="0 0 760.0001 231.0798">
  <path fill="#4460a4" d="M.488 230.021c-1.246-2.016 1.624-7.6734 6.1053-12.035 5.5775-5.429 7.744-9.3074 6.822-12.2126-.3784-1.192-3.0405-4.657-5.916-7.7C1.1213 191.3234 0 189.2684 0 184.3287c0-4.438 1.3225-6.645 8.668-14.464C11.6006 166.743 14 163.4582 14 162.565c0-2.7008-2.605-6.8034-7-11.0245-5.3737-5.161-7-8.3708-7-13.8155 0-4.8164 1.0932-6.6458 9.1873-15.3746C11.8343 119.4958 14 116.436 14 115.5507c0-2.687-2.6128-6.7967-7-11.0102-5.231-5.024-7-8.367-7-13.2278 0-4.4454 1.4234-6.838 8.312-13.9724 6.8505-7.0946 6.7603-9.205-.7467-17.4583C1.3405 53.0383 0 50.5625 0 45.9097c0-4.0972 1.3362-6.3365 8.1487-13.6558 7.8906-8.478 7.838-10.041-.6487-19.288C2.5998 7.626 1 5.164 1 2.961V.0402h44.2312L69.8656 7.002c28.0352 7.9226 37.662 10.1652 54.6344 12.727 11.3298 1.7103 25.431 1.8115 252.5 1.8115 227.3338 0 241.239-.1 254-1.8274 20.2834-2.745 35.9535-6.152 60.924-13.245L714.5.055l22.191-.007c14.0063-.004 22.4233.369 22.821 1.012 1.246 2.016-1.6242 7.6734-6.1053 12.035-5.5775 5.429-7.744 9.3074-6.822 12.2126.3784 1.192 3.0405 4.657 5.916 7.7 6.378 6.75 7.4993 8.805 7.4993 13.7446 0 4.438-1.3225 6.645-8.668 14.464-2.9326 3.1216-5.332 6.4065-5.332 7.2996 0 2.701 2.605 6.8034 7 11.0246 5.3736 5.161 7 8.3707 7 13.8155 0 4.816-1.0932 6.645-9.1873 15.374-2.647 2.854-4.8127 5.914-4.8127 6.799 0 2.687 2.6128 6.797 7 11.011 5.2308 5.024 7 8.367 7 13.228 0 4.445-1.4235 6.838-8.3122 13.972-6.8504 7.094-6.76 9.205.7468 17.458 6.225 6.844 7.5654 9.319 7.5654 13.972 0 4.097-1.3363 6.336-8.1488 13.656-7.8905 8.477-7.838 10.04.6488 19.288 4.9 5.339 6.5 7.802 6.5 10.004v2.921h-44.5026L696.9987 226c-26.593-7.6567-42.9447-11.499-59.9987-14.099l-15.5-2.363h-492l-12 2.201c-6.6 1.2103-25.5667 6.048-42.148 10.75l-30.1482 8.549h-22.043c-13.8982 0-22.2756-.3767-22.673-1.0196zM574 176.4834c11.9312-2.8037 20.4732-7.8597 31.1048-18.4108 10.325-10.2468 15.6436-18.258 20.9963-31.6258 3.293-8.224 17.355-69.7758 16.469-72.0858-.418-1.0888-40.005-1.3207-225.489-1.3207-158.476 0-226.548.3222-230.281 1.09-7.836 1.612-20.404 8.0228-27.884 14.223-11.034 9.147-21.562 25.0508-26.814 40.509C129.866 115.4413 117 172.738 117 176.114c0 1.8966 3.5202 1.9265 225.25 1.912 198.4802-.013 226.0225-.1964 231.75-1.5423zm-350.6418-20.397c-5.3856-1.2842-10.1073-4.8962-12.2873-9.3994-1.938-4.0014-2.071-6.015-2.071-31.1465 0-25.235.127-27.1318 2.096-31.1984 1.455-3.006 3.518-5.165 6.75-7.065l4.654-2.736 155.836-.265c103.493-.176 157.107.077 159.619.754 5.006 1.348 8.661 4.341 11.072 9.067 1.821 3.571 1.972 5.969 1.972 31.446 0 25.09-.171 27.915-1.894 31.29-1.042 2.041-2.812 4.541-3.934 5.556-5.213 4.714-.001 4.571-164.173 4.509-84.975-.032-155.914-.395-157.642-.807z"/>
  <path fill="#3f5898" d="M1 228.0446c0-2.294 1.5226-4.655 6.5-10.0787 8.4836-9.245 8.5343-10.79.633-19.283-10.3136-11.086-10.413-16.229-.518-26.765 8.064-8.586 8.4478-11.464 2.3232-17.425-2.234-2.174-5.384-5.943-7-8.375-4.987-7.505-3.8334-12.394 5.1247-21.723 7.957-8.287 7.965-10.227.07-18.713C-2.181 94.597-2.28 89.454 7.615 78.918c8.5033-9.0537 8.5038-10.5605.006-19.82-9.8915-10.7787-9.733-15.847.8432-26.9348 7.759-8.1345 7.6897-10.7468-.517-19.52-4.0947-4.377-6.1166-7.3812-6.25-9.2864L1.5.5405 22.873.2702 44.246 0l26.2943 7.4682c14.462 4.1075 30.944 8.3627 36.627 9.456C133.8213 22.052 127.6433 21.93 377 22.246c217.368.2753 233.4976.179 247.828-1.4804 24.8094-2.8727 40.626-6.2546 73.8585-15.7925L715.873.041H759v2.9958c0 2.294-1.5226 4.655-6.5 10.0788-8.4836 9.2445-8.5343 10.7892-.633 19.2824 10.3136 11.0865 10.4132 16.2297.518 26.7656-8.064 8.586-8.4478 11.464-2.3232 17.4245 2.234 2.174 5.384 5.943 7 8.375 4.9868 7.505 3.8333 12.394-5.1248 21.723-7.9577 8.287-7.965 10.227-.07 18.713 10.3138 11.087 10.4133 16.23.518 26.766-8.503 9.054-8.5036 10.561-.01 19.82 9.8917 10.779 9.733 15.847-.843 26.935-7.759 8.135-7.6897 10.747.517 19.52 4.0946 4.378 6.1165 7.382 6.25 9.287l.1972 2.817-21.1664.27-21.1664.27-24.4514-6.957c-26.7607-7.615-43.995-11.298-64.101-13.697-18.894-2.255-108.081-2.679-323.6148-1.539-206.57 1.092-180.028-.484-229.6147 13.635l-29.8853 8.509-21.75.005-21.75.005v-2.995zm573-51.561c11.9312-2.8038 20.4732-7.8598 31.1048-18.411 10.325-10.2467 15.6436-18.258 20.9963-31.6257 3.293-8.224 17.355-69.776 16.469-72.086-.418-1.089-40.005-1.321-225.489-1.321-158.476 0-226.548.322-230.281 1.09-7.836 1.612-20.404 8.023-27.884 14.223-11.034 9.147-21.562 25.051-26.814 40.509-2.235 6.579-15.101 63.875-15.101 67.251 0 1.896 3.521 1.926 225.25 1.912 198.481-.013 226.023-.197 231.75-1.543zM380.4654 153.811c-.2695-.7024-.372-18.3755-.2277-39.2738l.2623-37.9968H459c87.307 0 82.0793-.404 87.171 6.735 2.31 3.2384 2.329 3.5014 2.329 32.265s-.019 29.0266-2.329 32.265c-5.0757 7.1164.034 6.7046-86.9434 7.0086-62.7686.2195-78.3693.0208-78.7622-1.003z"/>
  <path fill="#c82c23" d="M1 228.0446c0-2.294 1.5226-4.655 6.5-10.0787 8.4836-9.245 8.5343-10.79.633-19.283-10.3136-11.086-10.413-16.229-.518-26.765 8.064-8.586 8.4478-11.464 2.3232-17.425-2.234-2.174-5.384-5.943-7-8.375-4.987-7.505-3.8334-12.394 5.1247-21.723 7.957-8.287 7.965-10.227.07-18.713C-2.181 94.597-2.28 89.454 7.615 78.918c8.5033-9.0537 8.5038-10.5605.006-19.82-9.8915-10.7787-9.733-15.847.8432-26.9348 7.759-8.1345 7.6897-10.7468-.517-19.52-4.0947-4.377-6.1166-7.3812-6.25-9.2864L1.5.5405 22.873.2702 44.246 0l26.2943 7.4682c14.462 4.1075 30.944 8.3627 36.627 9.456C133.8213 22.052 127.6433 21.93 377 22.246c217.368.2753 233.4976.179 247.828-1.4804 24.8094-2.8727 40.626-6.2546 73.8585-15.7925L715.873.041H759v2.9958c0 2.294-1.5226 4.655-6.5 10.0788-8.4836 9.2445-8.5343 10.7892-.633 19.2824 10.3136 11.0865 10.4132 16.2297.518 26.7656-8.064 8.586-8.4478 11.464-2.3232 17.4245 2.234 2.174 5.384 5.943 7 8.375 4.9868 7.505 3.8333 12.394-5.1248 21.723-7.9577 8.287-7.965 10.227-.07 18.713 10.3138 11.087 10.4133 16.23.518 26.766-8.503 9.054-8.5036 10.561-.01 19.82 9.8917 10.779 9.733 15.847-.843 26.935-7.759 8.135-7.6897 10.747.517 19.52 4.0946 4.378 6.1165 7.382 6.25 9.287l.1972 2.817-21.1664.27-21.1664.27-24.4514-6.957c-26.7607-7.615-43.995-11.298-64.101-13.697-18.894-2.255-108.081-2.679-323.6148-1.539-206.57 1.092-180.028-.484-229.6147 13.635l-29.8853 8.509-21.75.005-21.75.005v-2.995zm573-51.561c11.9312-2.8038 20.4732-7.8598 31.1048-18.411 10.325-10.2467 15.6436-18.258 20.9963-31.6257 3.293-8.224 17.355-69.776 16.469-72.086-.418-1.089-40.005-1.321-225.489-1.321-158.476 0-226.548.322-230.281 1.09-7.836 1.612-20.404 8.023-27.884 14.223-11.034 9.147-21.562 25.051-26.814 40.509-2.235 6.579-15.101 63.875-15.101 67.251 0 1.896 3.521 1.926 225.25 1.912 198.481-.013 226.023-.197 231.75-1.543z"/>
  <path fill="#844732" d="M1 228.0446c0-2.294 1.5226-4.655 6.5-10.0787 8.4836-9.245 8.5343-10.79.633-19.283-10.3136-11.086-10.413-16.229-.518-26.765 8.064-8.586 8.4478-11.464 2.3232-17.425-2.234-2.174-5.384-5.943-7-8.375-4.987-7.505-3.8334-12.394 5.1247-21.723 7.957-8.287 7.965-10.227.07-18.713C-2.181 94.597-2.28 89.454 7.615 78.918c8.5033-9.0537 8.5038-10.5605.006-19.82-9.8915-10.7787-9.733-15.847.8432-26.9348 7.759-8.1345 7.6897-10.7468-.517-19.52-4.0947-4.377-6.1166-7.3812-6.25-9.2864L1.5.5405 22.873.2702 44.246 0l26.2943 7.4682c14.462 4.1075 30.944 8.3627 36.627 9.456C133.8213 22.052 127.6433 21.93 377 22.246c217.368.2753 233.4976.179 247.828-1.4804 24.8094-2.8727 40.626-6.2546 73.8585-15.7925L715.873.041H759v2.9958c0 2.294-1.5226 4.655-6.5 10.0788-8.4836 9.2445-8.5343 10.7892-.633 19.2824 10.3136 11.0865 10.4132 16.2297.518 26.7656-8.064 8.586-8.4478 11.464-2.3232 17.4245 2.234 2.174 5.384 5.943 7 8.375 4.9868 7.505 3.8333 12.394-5.1248 21.723-7.9577 8.287-7.965 10.227-.07 18.713 10.3138 11.087 10.4133 16.23.518 26.766-8.503 9.054-8.5036 10.561-.01 19.82 9.8917 10.779 9.733 15.847-.843 26.935-7.759 8.135-7.6897 10.747.517 19.52 4.0946 4.378 6.1165 7.382 6.25 9.287l.1972 2.817-21.1664.27-21.1664.27-24.4514-6.957c-26.7607-7.615-43.995-11.298-64.101-13.697-18.894-2.255-108.081-2.679-323.6148-1.539-206.57 1.092-180.028-.484-229.6147 13.635l-29.8853 8.509-21.75.005-21.75.005v-2.995zm571-37.4373c16.472-2.9943 27.8062-8.839 40.7328-21.005 9.588-9.0236 15.4037-16.7195 21.201-28.0558 5.9804-11.694 8.3137-19.7588 16.105-55.666 7.8876-36.3512 7.943-37.609 1.9115-43.3876l-3.0816-2.953-228.9676-.257c-257.781-.289-236.087-.948-253.401 7.697-21.551 10.76-37.418 29.7-46.967 56.059-3.346 9.238-16.528 68.884-16.531 74.799 0 5.056 1.923 9.209 5.613 12.112l2.655 2.088 226.615-.035c186.894-.029 227.93-.274 234.115-1.399zm33.5-32.5668c.9955-1.1 2.035-2 2.31-2 .275 0-.3145.9-1.31 2s-2.035 2-2.31 2c-.275 0 .3145-.9 1.31-2z"/>
  <path fill="#a43224" d="M2.3513 228.5136c-.7034-1.833 3.1254-7.5798 8.6343-12.959C14.305 212.313 15 210.9646 15 207.7632c0-3.3086-.7797-4.6963-5.3643-9.547C3.044 191.242 2 189.3006 2 184.0197c0-3.7092.6335-4.812 5.937-10.3352 9.8605-10.2686 9.9216-12.756.5592-22.7496-9.4275-10.064-9.4403-15.332-.0603-24.857 2.999-3.046 5.925-6.797 6.502-8.336 1.415-3.777-.495-8.049-5.905-13.202C3.721 99.48 2 96.188 2 91.094c0-3.586.7384-4.85 6.5-11.1284 5.7406-6.2556 6.5-7.5514 6.5-11.091 0-3.5406-.7044-4.7413-6.0434-10.3013-9.4815-9.874-9.452-15.0662.142-25.0575 4.208-4.382 6.1546-7.261 6.5478-9.684.51-3.143-.016-4.1055-5.9433-10.875C-.539 1.2594-.849 1.5954 20.5 1.247c9.9-.1617 19.4625-.029 21.25.2952l3.25.589v226.676l-2.25.603c-1.2375.3317-10.7016.609-21.0314.6167-15.928.011-18.8704-.219-19.3673-1.514zM699.5 224.4802c-26.851-7.7095-44.8245-12.0134-61-14.6072-13.802-2.2132-15.727-2.2527-136-2.7887l-122-.5438v-12l95-.5076c65.132-.348 22.6518-.584-135.1152-.75l-230.115-.243-2.6413-2.078c-1.4526-1.143-3.1587-3.045-3.7912-4.227-3.155-5.896-2.9157-8.412 3.729-39.196 7.775-36.022 9.2332-41.526 13.8733-52.362 12.014-28.059 34.4522-48.689 59.9703-55.139 7.795-1.971 11.243-2 237.315-2 164.106 0 230.027.311 231.59 1.094 1.201.602 3.236 2.289 4.523 3.75 2.009 2.281 2.18 2.338 1.215.406-.619-1.238-2.326-3.038-3.795-4-2.501-1.639-11.255-1.782-137.215-2.25l-134.544-.5v-12l121-.574c106.175-.503 122.347-.779 132-2.248 19.795-3.014 36.291-6.726 61.137-13.758l24.456-6.92h18.985c16.102 0 19.074.231 19.571 1.526.703 1.833-3.126 7.58-8.635 12.959-3.319 3.242-4.014 4.59-4.014 7.791 0 3.308.779 4.696 5.364 9.547 6.593 6.977 7.637 8.919 7.637 14.2 0 3.709-.634 4.812-5.937 10.335-9.861 10.268-9.922 12.756-.56 22.749 9.4272 10.064 9.44 15.332.06 24.857-3 3.046-5.926 6.797-6.5028 8.336-1.4155 3.777.495 8.049 5.9044 13.202 5.3122 5.061 7.034 8.352 7.034 13.447 0 3.586-.7384 4.85-6.5 11.129-5.7406 6.256-6.5 7.552-6.5 11.091 0 3.541.7044 4.742 6.0434 10.302 9.482 9.874 9.453 15.0662-.142 25.0575-4.213 4.3875-6.154 7.26-6.548 9.691-.511 3.148-.011 4.0684 5.633 10.3696 6.084 6.792 8.214 10.178 7.338 11.665-.243.412-9.077.726-19.632.697l-19.191-.053-19-5.455zm-124.231-32.0956c-.677-.274-2.027-.2906-3-.037-.973.2534-.419.4775 1.231.498 1.65.0203 2.446-.1872 1.769-.461zM572 190.6073c16.472-2.9943 27.8062-8.839 40.7328-21.005 9.588-9.0236 15.4037-16.7195 21.201-28.0558 5.9804-11.6938 8.3137-19.7588 16.105-55.666 7.8876-36.3512 7.943-37.609 1.9115-43.3876l-3.0816-2.953-228.9676-.257c-257.781-.289-236.087-.948-253.401 7.697-21.551 10.76-37.418 29.7-46.967 56.059-3.346 9.238-16.528 68.884-16.531 74.799 0 5.056 1.923 9.209 5.613 12.112l2.655 2.088 226.615-.035c186.894-.029 227.93-.274 234.115-1.398zm7.729.829c-.3322-.3323-1.1947-.3678-1.9165-.079-.7978.3193-.5608.5563.604.6043 1.0543.0434 1.645-.193 1.3126-.5252zm5.271-1.3958c1.828-1.1813.249-1.1813-2.5 0-1.3188.5667-1.489.878-.5.9144.825.03 2.175-.382 3-.915zm6-2.5c1.375-.786 2.05-1.429 1.5-1.429-.55 0-2.125.643-3.5 1.429s-2.05 1.429-1.5 1.429c.55 0 2.125-.643 3.5-1.429zm20.437-13.1132c6.7753-5.7743 15.0116-15.2152 19.094-21.8868 2.6358-4.3072.739-2.1433-6.0304 6.88-6.2737 8.3626-16.3718 17.702-23.9276 22.13-2.5152 1.474-4.573 2.891-4.573 3.149 0 1.2054 8.9846-4.7732 15.437-10.2722zm25.1146-32.4893c1.9672-3.9064 3.4137-7.2655 3.2144-7.4648-.1993-.1993-2.0245 2.997-4.056 7.1025-2.0315 4.1056-3.478 7.4648-3.2144 7.4648.2636 0 2.0888-3.196 4.056-7.1025zm6.3566-15.0917c1.1505-3.4068 2.059-6.6693 2.0187-7.25-.04-.5807-.875 1.1942-1.854 3.9442-2.704 7.5923-3.253 9.5-2.733 9.5.261 0 1.417-2.7874 2.567-6.1942zm2.775-10.9933c-.3193-.7977-.5563-.5608-.6043.6042-.043 1.054.192 1.6448.525 1.3125.332-.3323.368-1.1948.079-1.9167zm7.2952-31.12c5.8182-26.8687 6.9054-34.751 5.1704-37.486-.4615-.7273-.6416 1.0233-.4117 4 .303 3.9145-1.173 12.5377-5.664 33.101-5.35 24.4993-6.884 32.6192-5.515 29.1925.22-.55 3.109-13.5134 6.421-28.8076z"/>
  <path fill="#6a3a26" d="M2.3513 228.5136c-.7034-1.833 3.1254-7.5798 8.6343-12.959C14.305 212.313 15 210.9646 15 207.7632c0-3.3086-.7797-4.6963-5.3643-9.547C3.044 191.242 2 189.3006 2 184.0197c0-3.7092.6335-4.812 5.937-10.3352 9.8605-10.2686 9.9216-12.756.5592-22.7496-9.4275-10.064-9.4403-15.332-.0603-24.857 2.999-3.046 5.925-6.797 6.502-8.336 1.415-3.777-.495-8.049-5.905-13.202C3.721 99.48 2 96.188 2 91.094c0-3.586.7384-4.85 6.5-11.1284 5.7406-6.2556 6.5-7.5514 6.5-11.091 0-3.5406-.7044-4.7413-6.0434-10.3013-9.4815-9.874-9.452-15.0662.142-25.0575 4.208-4.382 6.1546-7.261 6.5478-9.684.51-3.143-.016-4.1055-5.9433-10.875C-.539 1.2594-.849 1.5954 20.5 1.247c9.9-.1617 19.4625-.029 21.25.2952l3.25.589v226.676l-2.25.603c-1.2375.3317-10.7016.609-21.0314.6167-15.928.011-18.8704-.219-19.3673-1.514zM699.5 224.4802c-26.851-7.7095-44.8245-12.0134-61-14.6072-13.802-2.2132-15.727-2.2527-136-2.7887l-122-.5438v-12l97-.536c108.8037-.6014 100.1164.0192 117-8.359 21.5852-10.7113 39.5962-32.7232 48.3618-59.105C646.4848 115.637 659 58.5815 659 52.969c0-4.9463-3.1305-11.3126-6.7187-13.664-2.5298-1.6575-10.8486-1.7948-137.2372-2.2645l-134.544-.5v-12l121-.5734c106.176-.503 122.348-.778 132-2.248 19.796-3.013 36.291-6.725 61.138-13.757l24.456-6.921h18.985c16.102 0 19.074.232 19.571 1.527.704 1.833-3.125 7.58-8.634 12.959-3.319 3.242-4.014 4.59-4.014 7.791 0 3.309.78 4.697 5.365 9.547 6.591 6.974 7.635 8.916 7.635 14.197 0 3.709-.633 4.812-5.937 10.335-9.86 10.269-9.921 12.756-.559 22.75 9.428 10.064 9.44 15.332.06 24.857-3 3.046-5.926 6.797-6.502 8.336-1.415 3.777.495 8.049 5.905 13.202 5.313 5.061 7.034 8.352 7.034 13.446 0 3.586-.738 4.85-6.5 11.129-5.74 6.256-6.5 7.552-6.5 11.091 0 3.541.705 4.742 6.044 10.302 9.482 9.874 9.453 15.066-.142 25.058-4.213 4.388-6.154 7.26-6.548 9.691-.511 3.148-.011 4.069 5.633 10.37 6.084 6.793 8.214 10.178 7.338 11.665-.243.413-9.077.727-19.632.698l-19.191-.052-19-5.455z"/>
  <path fill="#5c2e1f" d="M3 227.163c0-1.0327.749-2.4952 1.6643-3.25.9153-.755 3.8403-3.9834 6.5-7.1744 6.9466-8.3346 6.751-10.738-1.5984-19.628-6.963-7.4128-8.771-11.919-6.509-16.2148.682-1.2954 3.873-5.1843 7.091-8.642C15.279 166.7414 16 165.4703 16 161.93c0-3.5025-.7068-4.7902-5.332-9.7136C3.659 144.7552 2 142.1784 2 138.7522c0-3.986 1.42-6.3207 8.134-13.3752 5.211-5.4753 5.866-6.624 5.866-10.2895 0-3.6975-.6684-4.838-6.434-10.9768C2.6136 96.7083.801 92.201 3.044 87.8957c.675-1.2953 3.6183-4.8852 6.5405-7.9774 8.452-8.9435 8.4384-12.857-.076-21.7835-9.564-10.027-9.5468-13.9385.1065-24.2168 5.8042-6.18 6.3842-7.1885 6.3772-11.088-.007-3.8583-.6604-5.023-6.5-11.5862C5.9215 7.2306 3 3.518 3 2.9938c0-.5726 7.9863-.9533 20-.9533h20v227H23c-18.8986 0-20-.1034-20-1.8776zm713-111.6225v-113.5h20.5c19.3877 0 20.5.102 20.5 1.8775 0 1.0327-.749 2.4952-1.6643 3.25-.9154.755-3.8404 3.9833-6.5 7.1744-6.9466 8.3346-6.751 10.738 1.5984 19.628 6.962 7.4128 8.771 11.919 6.509 16.2148-.682 1.2954-3.873 5.1842-7.091 8.642C744.721 64.3396 744 65.6106 744 69.151c0 3.5025.7068 4.7902 5.332 9.7135 7.009 7.461 8.668 10.0378 8.668 13.464 0 3.986-1.42 6.3208-8.134 13.3752-5.211 5.4752-5.866 6.624-5.866 10.2895 0 3.6975.6684 4.8378 6.434 10.9768 6.9523 7.4023 8.765 11.9095 6.5218 16.215-.675 1.2953-3.618 4.8852-6.5404 7.9773-8.554 9.0515-8.4722 12.6425.508 22.2956 9.0853 9.766 8.998 13.988-.4875 23.62-5.347 5.429-7.343 9.454-6.687 13.482.181 1.111 3.236 5.294 6.79 9.296 3.553 4.002 6.46 7.706 6.46 8.23 0 .573-8.17.953-20.5.953H716v-113.5z"/>
</svg>
