<?xml version="1.0" encoding="utf-8"?>
<svg version="1.1" xmlns="http://www.w3.org/2000/svg" viewBox="0 0 140 42.1">
	<path fill="#733923" d="M124.78,40.09l7.14,2.01V0l-6.49,1.83c-5.37,1.51-11.1,2.29-16.89,2.29H70H30.11
		c-4.89,0-9.75-0.66-14.29-1.94L8.08,0v42.1l9.6-2.7c3.32-0.93,6.86-1.41,10.43-1.41H70h39.24C114.56,37.99,119.83,38.7,124.78,40.09
		z"/>
	<path fill="#8B462D" d="M30.11,4.11c-4.89,0-9.75-0.66-14.29-1.94L8.08,0v42.1l9.6-2.7c3.32-0.93,6.86-1.41,10.43-1.41H70V4.11
		H30.11z"/>
	<path fill="#642C1B" d="M8.08,0H5.37v0H0.15c0,0.65,0.25,1.25,0.71,1.71l1.43,1.43c0.27,0.27,0.42,0.64,0.42,1.03
		c0,0.39-0.15,0.75-0.42,1.03L0.77,6.7c-0.94,0.94-0.94,2.48,0,3.42l1.41,1.41c0.57,0.57,0.57,1.49,0,2.05l-1.43,1.43
		c-0.94,0.94-0.94,2.48,0,3.42l1.47,1.47c0.57,0.57,0.57,1.49,0,2.05l-1.52,1.52C0.23,23.95,0,24.58,0,25.2
		c0,0.62,0.23,1.25,0.71,1.72l1.52,1.52c0.57,0.57,0.57,1.49,0,2.05l-1.47,1.47c-0.94,0.94-0.94,2.48,0,3.42l1.43,1.43
		c0.57,0.57,0.57,1.49,0,2.05l-1.41,1.41c-0.5,0.5-0.73,1.16-0.7,1.81h8V0z"/>
	<path fill="#642C1B" d="M131.92,42.1h2.71v0h5.23c0-0.65-0.25-1.25-0.71-1.71l-1.43-1.43c-0.27-0.27-0.42-0.64-0.42-1.03
		c0-0.39,0.15-0.75,0.42-1.03l1.51-1.51c0.94-0.94,0.94-2.48,0-3.42l-1.41-1.41c-0.57-0.57-0.57-1.49,0-2.05l1.43-1.43
		c0.94-0.94,0.94-2.48,0-3.42l-1.47-1.47c-0.57-0.57-0.57-1.49,0-2.05l1.52-1.52c0.48-0.48,0.71-1.1,0.71-1.72
		c0-0.62-0.23-1.25-0.71-1.72l-1.52-1.52c-0.57-0.57-0.57-1.49,0-2.05l1.47-1.47c0.94-0.94,0.94-2.48,0-3.42l-1.43-1.43
		c-0.57-0.57-0.57-1.49,0-2.05l1.41-1.41c0.5-0.5,0.73-1.16,0.7-1.81h-8V42.1z"/>
	<path fill="#FFFFFF" d="M118.91,6.96H36.7c-7.31,0-13.7,5.98-15.59,14.57l-2.22,10.1c-0.39,1.76,0.7,3.49,2.2,3.49h82.21
		c7.31,0,13.7-5.98,15.59-14.57l2.22-10.1C121.5,8.7,120.41,6.96,118.91,6.96z"/>
	<path fill="#E20613" d="M118.55,9.59c0.02,0.08,0.03,0.19,0,0.31L116.33,20c-1.62,7.37-6.98,12.52-13.03,12.52H21.45
		c-0.02-0.08-0.03-0.19,0-0.31l2.22-10.1c1.62-7.37,6.98-12.52,13.03-12.52H118.55 M118.91,6.96H36.7c-7.31,0-13.7,5.98-15.59,14.57
		l-2.22,10.1c-0.39,1.76,0.7,3.49,2.2,3.49h82.21c7.31,0,13.7-5.98,15.59-14.57l2.22-10.1C121.5,8.7,120.41,6.96,118.91,6.96
		L118.91,6.96z"/>
	<path fill="#D10A11" d="M118.89,20.56l2.22-10.1c0.05-0.22,0.07-0.44,0.08-0.66c0.03-1.51-0.97-2.84-2.28-2.84H70v2.62h48.55
		c0.02,0.08,0.03,0.19,0,0.31L116.33,20c-1.62,7.37-6.98,12.52-13.03,12.52H70v2.62h33.3C110.6,35.14,117,29.16,118.89,20.56z"/>
	<path fill="#3D61AA" d="M97.76,28.53H42.24c-2.07,0-3.75-1.68-3.75-3.75v-7.46c0-2.07,1.68-3.75,3.75-3.75h55.53
		c2.07,0,3.75,1.68,3.75,3.75v7.46C101.51,26.85,99.83,28.53,97.76,28.53z"/>
	<path fill="#395A9D" d="M101.51,25.25v-8.41c0-1.81-1.46-3.27-3.27-3.27H70v14.95h28.24C100.04,28.53,101.51,27.06,101.51,25.25z"/>
</svg>
