<?xml version="1.0" encoding="utf-8"?>
<svg version="1.1" xmlns="http://www.w3.org/2000/svg" viewBox="0 0 114 140">
	<path fill="#00713E" d="M110.57,23.09l3.43-8.64H0l3.11,7.85c2.58,6.5,3.9,13.42,3.9,20.41V70v28.91c0,5.92-1.12,11.78-3.3,17.28
		L0,125.55h114l-4.61-11.61c-1.59-4.01-2.41-8.29-2.41-12.61V70V41.87C106.98,35.44,108.2,29.06,110.57,23.09z"/>
	<path fill="#007A43" d="M0,14.45l3.11,7.85c2.58,6.5,3.9,13.42,3.9,20.41V70v28.91c0,5.92-1.12,11.78-3.3,17.28L0,125.55h57V14.45H0
		z"/>
	<rect y="125.55" fill="#01683C" width="114" height="14.45"/>
	<rect x="57" y="125.55" fill="#02603A" width="57" height="14.45"/>
	<rect fill="#01683C" width="114" height="14.45"/>
	<rect x="57" fill="#02603A" width="57" height="14.45"/>
	<ellipse fill="#EFD700" cx="57.71" cy="61.83" rx="29.95" ry="29.96"/>
	<path fill="#FFE800" d="M27.76,61.83c0,16.31,13.03,29.54,29.24,29.92V31.91C40.79,32.29,27.76,45.52,27.76,61.83z"/>
	<path fill="#ECECEC" d="M78.32,110.02H57v-5.68h21.32c1.3,0,2.35,1.05,2.35,2.35v0.98C80.67,108.97,79.62,110.02,78.32,110.02z"/>
	<path fill="#FFFFFF" d="M35.68,104.34H57v5.68H35.68c-1.3,0-2.35-1.05-2.35-2.35v-0.98C33.33,105.39,34.38,104.34,35.68,104.34z"/>
	<path fill="#C60D10" d="M22.6,78.42c23.2-12.5,46.39,11.54,69.59-0.96c-0.23-10.26-0.46-20.53-0.69-30.79
		C68.76,58.3,46.02,34.1,23.29,45.72C23.06,56.62,22.83,67.52,22.6,78.42z"/>
	<path fill="#B40F0C" d="M92.19,77.46c-0.23-10.26-0.46-20.53-0.69-30.79c-11.5,5.88-23,2.6-34.5-0.58v31.76
		C68.73,80.76,80.46,83.78,92.19,77.46z"/>
</svg>
