<?xml version="1.0" encoding="utf-8"?>
<!-- Generator: Adobe Illustrator 21.0.2, SVG Export Plug-In . SVG Version: 6.00 Build 0)  -->
<svg version="1.1" id="Layer_1" xmlns="http://www.w3.org/2000/svg" xmlns:xlink="http://www.w3.org/1999/xlink" x="0px" y="0px"
	 viewBox="0 0 32 32" enable-background="new 0 0 32 32" xml:space="preserve">
<path fill="#4ABDD5" d="M25.84,14.53h-4.83v14.32c0.01,0.04,0.01,0.09,0.01,0.16c0,0.25-0.11,0.49-0.31,0.66
	C20.46,29.89,20.07,30,19.56,30h-7.42c-1.03,0-1.3-0.65-1.3-1V14.83H6.42C5.18,14.83,5,14.3,5,13.99c0-0.5,0.54-1.01,0.64-1.1
	c0.28-0.34,7.95-9.46,9.07-10.46C15.12,2.06,15.52,1.99,15.8,2c0.65,0.02,1.1,0.47,1.14,0.53l9.36,10.14
	c0.14,0.11,0.7,0.63,0.7,1.12C27,14.01,26.89,14.53,25.84,14.53z"/>
</svg>
